  0
SECTION
  2
HEADER
  9
$INSBASE
 10
0.0000
 20
0.0000
  9
$EXTMIN
 10
-80.610617149202085
 20
-78.103708006968304
  9
$EXTMAX
 10
80.610617149202056
 20
78.103708006968219
  9
$LIMMIN
 10
-80.610617149202085
 20
-78.103708006968304
  9
$LIMMAX
 10
80.610617149202056
 20
78.103708006968219
  9
$TEXTSTYLE
  7
STANDARD
  9
$CLAYER
  8
default
  0
ENDSEC
  0
SECTION
  2
TABLES
  0
TABLE
  2
LTYPE
 70
4948253
  0
LTYPE
  2
CONTINUOUS
 70
    64
  3
Solid line
 72
    65
 73
     0
 40
0.0
  0
ENDTAB
  0
TABLE
  2
LAYER
 70
     5
  0
LAYER
  2
default
 70
    64
 62
     7
  6
CONTINUOUS
  0
LAYER
  2
layer2
 70
    64
 62
     7
  6
CONTINUOUS
  0
ENDTAB
  0
TABLE
  2
STYLE
 70
     1
  0
STYLE
  2
STANDARD
 70
     0
 40
0.0
 41
1.0
 50
0.0
 71
     0
 42
0.2
  3
txt
  4

  0
ENDTAB
  0
TABLE
  2
VIEW
 70
     0
  0
ENDTAB
  0
ENDSEC
  0
SECTION
  2
BLOCKS
  0
ENDSEC
  0
SECTION
  2
ENTITIES
  0
LINE
  8
layer2
 10
-64.981621980111029
 20
20.320811626062358
 30
0.0
 11
-65.018428035615216
 21
-20.37611465424682
 31
0.0
  0
LINE
  8
layer2
 10
-74.785659255608948
 20
-34.596264810833581
 30
0.0
 11
-65.604527115275943
 21
-22.154717916353309
 31
0.0
  0
LINE
  8
layer2
 10
-74.78565925561017
 20
34.596264810830398
 30
0.0
 11
-65.567721059771969
 21
22.104841249884771
 31
0.0
  0
LINE
  8
layer2
 10
64.981621980111029
 20
20.32081162606233
 30
0.0
 11
65.018428035615216
 21
-20.37611465424683
 31
0.0
  0
LINE
  8
layer2
 10
74.785659255608934
 20
-34.59626481083361
 30
0.0
 11
65.604527115275928
 21
-22.15471791635332
 31
0.0
  0
LINE
  8
layer2
 10
74.78565925561017
 20
34.59626481083037
 30
0.0
 11
65.567721059771984
 21
22.104841249884728
 31
0.0
  0
LINE
  8
layer2
 10
-27.04029270636714
 20
64.999999999999986
 30
0.0
 11
27.040292706367151
 21
64.999999999999986
 31
0.0
  0
LINE
  8
layer2
 10
-28.667236343859511
 20
65.479473388273149
 30
0.0
 11
-39.36306060359211
 21
72.383389080393812
 31
0.0
  0
LINE
  8
layer2
 10
28.667236343859528
 20
65.479473388273149
 30
0.0
 11
39.36306060359211
 21
72.383389080393798
 31
0.0
  0
LINE
  8
layer2
 10
-27.04029270636714
 20
-64.999999999999986
 30
0.0
 11
27.040292706367168
 21
-64.999999999999986
 31
0.0
  0
LINE
  8
layer2
 10
-28.667236343859511
 20
-65.479473388273149
 30
0.0
 11
-39.36306060359211
 21
-72.383389080393812
 31
0.0
  0
LINE
  8
layer2
 10
28.667236343859539
 20
-65.479473388273149
 30
0.0
 11
39.363060603592118
 21
-72.383389080393812
 31
0.0
  0
LINE
  8
layer2
 10
-72.645200575772094
 20
-39.105729753280052
 30
0.0
 11
-61.186100306552682
 21
-23.577259931814918
 31
0.0
  0
LINE
  8
layer2
 10
-60.600000000000001
 20
-21.795943488850629
 30
0.0
 11
-60.600000000000001
 21
21.795943488850639
 31
0.0
  0
LINE
  8
layer2
 10
-72.645200575772094
 20
39.105729753280073
 30
0.0
 11
-61.186100306552682
 21
23.57725993181494
 31
0.0
  0
LINE
  8
layer2
 10
-57.59999999999998
 20
-22.783022975262401
 30
0.0
 11
-57.600000000000009
 21
22.78302297526244
 31
0.0
  0
LINE
  8
layer2
 10
-70.49172448783979
 20
-41.239951747642593
 30
0.0
 11
-58.186100306552689
 21
-24.564339418226691
 31
0.0
  0
LINE
  8
layer2
 10
-70.49172448783979
 20
41.239951747642628
 30
0.0
 11
-58.186100306552703
 21
24.56433941822673
 31
0.0
  0
LINE
  8
layer2
 10
-72.707525109334
 20
40.197883515972237
 30
0.0
 11
-72.16331548369989
 21
41.144561215025263
 31
0.0
  0
LINE
  8
layer2
 10
-72.707525109334
 20
-40.197883515972229
 30
0.0
 11
-72.16331548369989
 21
-41.144561215025263
 31
0.0
  0
LINE
  8
layer2
 10
-52.100000000000001
 20
-24.592413693754519
 30
0.0
 11
-52.100000000000001
 21
24.59241369375453
 31
0.0
  0
LINE
  8
layer2
 10
-67.408333074921003
 20
-46.32414001857294
 30
0.0
 11
-52.68610030655271
 21
-26.373730136718802
 31
0.0
  0
LINE
  8
layer2
 10
-49.100000000000001
 20
-25.579354085659279
 30
0.0
 11
-49.100000000000001
 21
25.579354085659318
 31
0.0
  0
LINE
  8
layer2
 10
-65.1815222334655
 20
-48.35884543850468
 30
0.0
 11
-49.686100306552689
 21
-27.360670528623579
 31
0.0
  0
LINE
  8
layer2
 10
-67.4117878664389
 20
-47.506973918187697
 30
0.0
 11
-66.794243487281577
 21
-48.354135042809887
 31
0.0
  0
LINE
  8
layer2
 10
-67.408333074921003
 20
46.324140018572969
 30
0.0
 11
-52.686100306552689
 21
26.373730136718819
 31
0.0
  0
LINE
  8
layer2
 10
-65.1815222334655
 20
48.35884543850468
 30
0.0
 11
-49.686100306552703
 21
27.360670528623611
 31
0.0
  0
LINE
  8
layer2
 10
-67.4117878664389
 20
47.506973918187697
 30
0.0
 11
-66.794243487281577
 21
48.354135042809922
 31
0.0
  0
LINE
  8
layer2
 10
72.645200575772066
 20
-39.10572975328008
 30
0.0
 11
61.186100306552667
 21
-23.57725993181494
 31
0.0
  0
LINE
  8
layer2
 10
60.59999999999998
 20
-21.795943488850639
 30
0.0
 11
60.600000000000009
 21
21.795943488850629
 31
0.0
  0
LINE
  8
layer2
 10
72.645200575772094
 20
39.105729753280038
 30
0.0
 11
61.186100306552703
 21
23.577259931814918
 31
0.0
  0
LINE
  8
layer2
 10
57.59999999999998
 20
-22.783022975262408
 30
0.0
 11
57.600000000000009
 21
22.783022975262408
 31
0.0
  0
LINE
  8
layer2
 10
70.49172448783979
 20
-41.239951747642628
 30
0.0
 11
58.186100306552682
 21
-24.564339418226709
 31
0.0
  0
LINE
  8
layer2
 10
70.491724487839804
 20
41.239951747642593
 30
0.0
 11
58.18610030655271
 21
24.564339418226709
 31
0.0
  0
LINE
  8
layer2
 10
72.707525109334014
 20
40.197883515972201
 30
0.0
 11
72.163315483699904
 21
41.144561215025249
 31
0.0
  0
LINE
  8
layer2
 10
72.707525109333986
 20
-40.197883515972258
 30
0.0
 11
72.163315483699876
 21
-41.144561215025291
 31
0.0
  0
LINE
  8
layer2
 10
52.099999999999987
 20
-24.592413693754519
 30
0.0
 11
52.100000000000001
 21
24.592413693754519
 31
0.0
  0
LINE
  8
layer2
 10
67.408333074920975
 20
-46.324140018572962
 30
0.0
 11
52.686100306552689
 21
-26.373730136718819
 31
0.0
  0
LINE
  8
layer2
 10
49.100000000000001
 20
-25.5793540856593
 30
0.0
 11
49.100000000000009
 21
25.5793540856593
 31
0.0
  0
LINE
  8
layer2
 10
65.181522233465486
 20
-48.358845438504709
 30
0.0
 11
49.686100306552667
 21
-27.360670528623601
 31
0.0
  0
LINE
  8
layer2
 10
67.411787866438871
 20
-47.506973918187718
 30
0.0
 11
66.794243487281562
 21
-48.354135042809922
 31
0.0
  0
LINE
  8
layer2
 10
67.408333074921032
 20
46.32414001857294
 30
0.0
 11
52.68610030655271
 21
26.373730136718802
 31
0.0
  0
LINE
  8
layer2
 10
65.181522233465515
 20
48.358845438504659
 30
0.0
 11
49.686100306552703
 21
27.36067052862359
 31
0.0
  0
LINE
  8
layer2
 10
67.4117878664389
 20
47.506973918187697
 30
0.0
 11
66.794243487281591
 21
48.354135042809887
 31
0.0
  0
LINE
  8
layer2
 10
-28.492227766134771
 20
60.700210887664788
 30
0.0
 11
28.492227766134789
 21
60.700210887664788
 31
0.0
  0
LINE
  8
layer2
 10
-30.119171403627139
 20
61.179684275937973
 30
0.0
 11
-43.553293449787311
 21
69.851110035383641
 31
0.0
  0
LINE
  8
layer2
 10
-29.464741003432021
 20
57.400210887664791
 30
0.0
 11
29.464741003432039
 21
57.400210887664791
 31
0.0
  0
LINE
  8
layer2
 10
-31.091684640924392
 20
57.879684275937969
 30
0.0
 11
-45.816660859215141
 21
67.384327575126079
 31
0.0
  0
LINE
  8
layer2
 10
-45.829342471072003
 20
69.056356023015383
 30
0.0
 11
-44.65060415330575
 21
69.842787408788411
 31
0.0
  0
LINE
  8
layer2
 10
30.11917140362716
 20
61.179684275937973
 30
0.0
 11
43.553293449787319
 21
69.851110035383613
 31
0.0
  0
LINE
  8
layer2
 10
31.091684640924409
 20
57.879684275937969
 30
0.0
 11
45.816660859215183
 21
67.384327575126065
 31
0.0
  0
LINE
  8
layer2
 10
45.829342471072017
 20
69.056356023015354
 30
0.0
 11
44.650604153305771
 21
69.842787408788396
 31
0.0
  0
LINE
  8
layer2
 10
-31.085596398927429
 20
51.900210887664777
 30
0.0
 11
31.08559639892745
 21
51.900210887664777
 31
0.0
  0
LINE
  8
layer2
 10
-32.712540036419789
 20
52.379684275937969
 30
0.0
 11
-50.910966460530759
 21
64.126362111168575
 31
0.0
  0
LINE
  8
layer2
 10
-31.88128904762516
 20
49.200210887664781
 30
0.0
 11
31.881289047625181
 21
49.200210887664781
 31
0.0
  0
LINE
  8
layer2
 10
-33.508232685117527
 20
49.679684275937952
 30
0.0
 11
-52.55791835854523
 21
61.975830945613303
 31
0.0
  0
LINE
  8
layer2
 10
-52.657057655870929
 20
63.583168113217617
 30
0.0
 11
-52.094734849518041
 21
64.053348204288369
 31
0.0
  0
LINE
  8
layer2
 10
32.712540036419817
 20
52.379684275937969
 30
0.0
 11
50.910966460530773
 21
64.126362111168575
 31
0.0
  0
LINE
  8
layer2
 10
33.508232685117562
 20
49.679684275937952
 30
0.0
 11
52.557918358545237
 21
61.975830945613268
 31
0.0
  0
LINE
  8
layer2
 10
52.65705765587095
 20
63.583168113217603
 30
0.0
 11
52.094734849518041
 21
64.053348204288355
 31
0.0
  0
LINE
  8
layer2
 10
-28.492227766134771
 20
-60.700210887664788
 30
0.0
 11
28.492227766134771
 21
-60.700210887664802
 31
0.0
  0
LINE
  8
layer2
 10
-30.119171403627149
 20
-61.179684275937959
 30
0.0
 11
-43.553293449787319
 21
-69.851110035383613
 31
0.0
  0
LINE
  8
layer2
 10
-29.464741003432032
 20
-57.400210887664791
 30
0.0
 11
29.464741003432021
 21
-57.400210887664791
 31
0.0
  0
LINE
  8
layer2
 10
-31.091684640924392
 20
-57.879684275937962
 30
0.0
 11
-45.816660859215183
 21
-67.384327575126065
 31
0.0
  0
LINE
  8
layer2
 10
-45.829342471072017
 20
-69.056356023015354
 30
0.0
 11
-44.650604153305771
 21
-69.842787408788396
 31
0.0
  0
LINE
  8
layer2
 10
30.119171403627149
 20
-61.179684275937973
 30
0.0
 11
43.553293449787311
 21
-69.851110035383641
 31
0.0
  0
LINE
  8
layer2
 10
31.091684640924392
 20
-57.879684275937969
 30
0.0
 11
45.816660859215141
 21
-67.384327575126079
 31
0.0
  0
LINE
  8
layer2
 10
45.829342471072003
 20
-69.056356023015383
 30
0.0
 11
44.65060415330575
 21
-69.842787408788411
 31
0.0
  0
LINE
  8
layer2
 10
-31.085596398927429
 20
-51.900210887664777
 30
0.0
 11
31.085596398927439
 21
-51.900210887664798
 31
0.0
  0
LINE
  8
layer2
 10
-32.71254003641981
 20
-52.379684275937947
 30
0.0
 11
-50.910966460530773
 21
-64.126362111168575
 31
0.0
  0
LINE
  8
layer2
 10
-31.881289047625181
 20
-49.200210887664781
 30
0.0
 11
31.88128904762517
 21
-49.200210887664781
 31
0.0
  0
LINE
  8
layer2
 10
-33.508232685117548
 20
-49.679684275937952
 30
0.0
 11
-52.557918358545237
 21
-61.975830945613282
 31
0.0
  0
LINE
  8
layer2
 10
-52.657057655870958
 20
-63.58316811321761
 30
0.0
 11
-52.094734849518062
 21
-64.053348204288355
 31
0.0
  0
LINE
  8
layer2
 10
32.71254003641981
 20
-52.379684275937983
 30
0.0
 11
50.910966460530751
 21
-64.126362111168575
 31
0.0
  0
LINE
  8
layer2
 10
33.508232685117548
 20
-49.679684275937959
 30
0.0
 11
52.55791835854523
 21
-61.975830945613289
 31
0.0
  0
LINE
  8
layer2
 10
52.657057655870929
 20
-63.583168113217617
 30
0.0
 11
52.094734849518041
 21
-64.053348204288369
 31
0.0
  0
LINE
  8
layer2
 10
59.673935477053448
 20
53.189337595474349
 30
0.0
 11
42.304291629059591
 21
29.651364808231829
 31
0.0
  0
LINE
  8
layer2
 10
35.351878104840679
 20
41.818224059251143
 30
0.0
 11
57.33095204576847
 21
55.707799599894173
 31
0.0
  0
LINE
  8
layer2
 10
35.351878104840679
 20
41.818224059251143
 30
0.0
 11
29.719464513359391
 21
41.818224059251143
 31
0.0
  0
LINE
  8
layer2
 10
29.365911122766121
 20
40.964670668657867
 30
0.0
 11
40.792551616723948
 21
29.538030174700051
 31
0.0
  0
LINE
  8
layer2
 10
59.673935477053448
 20
-53.189337595474349
 30
0.0
 11
42.304291629059591
 21
-29.651364808231829
 31
0.0
  0
LINE
  8
layer2
 10
35.351878104840679
 20
-41.818224059251143
 30
0.0
 11
57.33095204576847
 21
-55.707799599894173
 31
0.0
  0
LINE
  8
layer2
 10
35.351878104840679
 20
-41.818224059251143
 30
0.0
 11
29.719464513359391
 21
-41.818224059251143
 31
0.0
  0
LINE
  8
layer2
 10
29.365911122766121
 20
-40.964670668657867
 30
0.0
 11
40.792551616723948
 21
-29.538030174700051
 31
0.0
  0
LINE
  8
layer2
 10
-59.67393547705344
 20
53.189337595474349
 30
0.0
 11
-42.304291629059591
 21
29.651364808231829
 31
0.0
  0
LINE
  8
layer2
 10
-35.351878104840672
 20
41.818224059251158
 30
0.0
 11
-57.330952045768463
 21
55.70779959989418
 31
0.0
  0
LINE
  8
layer2
 10
-35.351878104840672
 20
41.818224059251158
 30
0.0
 11
-29.719464513359391
 21
41.818224059251158
 31
0.0
  0
LINE
  8
layer2
 10
-29.365911122766111
 20
40.964670668657881
 30
0.0
 11
-40.792551616723941
 21
29.538030174700051
 31
0.0
  0
LINE
  8
layer2
 10
-59.673935477053462
 20
-53.189337595474328
 30
0.0
 11
-42.304291629059612
 21
-29.651364808231811
 31
0.0
  0
LINE
  8
layer2
 10
-35.351878104840701
 20
-41.818224059251129
 30
0.0
 11
-57.330952045768491
 21
-55.707799599894152
 31
0.0
  0
LINE
  8
layer2
 10
-35.351878104840701
 20
-41.818224059251129
 30
0.0
 11
-29.719464513359409
 21
-41.818224059251129
 31
0.0
  0
LINE
  8
layer2
 10
-29.365911122766128
 20
-40.96467066865786
 30
0.0
 11
-40.792551616723962
 21
-29.53803017470003
 31
0.0
  0
ARC
  8
layer2
 10
0
 20
2.7020277635345972e-015
 30
0
 40
14.731231309511021
 50
360
 51
180
  0
ARC
  8
layer2
 10
0
 20
2.7020277635345972e-015
 30
0
 40
14.731231309511021
 50
180
 51
360
  0
ARC
  8
layer2
 10
4.2632564145606011e-014
 20
-1.4210854715202004e-014
 30
0
 40
84.000000000000028
 50
206.68633653681078
 51
239.59895899121341
  0
ARC
  8
layer2
 10
-68.018426808723248
 20
-20.373401473388984
 30
0
 40
3.0000000000000124
 50
323.57484929844696
 51
359.94818205553287
  0
ARC
  8
layer2
 10
-67.981620753219033
 20
20.323524806920169
 30
0
 40
2.9999999999999836
 50
359.94818205553338
 51
36.425150701560028
  0
ARC
  8
layer2
 10
68.018426808723248
 20
-20.373401473389013
 30
0
 40
3.0000000000000151
 50
180.05181794446676
 51
216.42515070155258
  0
ARC
  8
layer2
 10
72.371759562161614
 20
-36.377581253797885
 30
0
 40
2.9999999999999911
 50
333.31366346318896
 51
36.425150701552099
  0
ARC
  8
layer2
 10
67.981620753219048
 20
20.323524806920105
 30
0
 40
2.9999999999999898
 50
143.57484929843966
 51
180.05181794446594
  0
ARC
  8
layer2
 10
72.371759562163092
 20
36.377581253794972
 30
0
 40
2.9999999999999938
 50
323.57484929844014
 51
26.686336536808614
  0
ARC
  8
layer2
 10
-27.040292706367165
 20
67.999999999999972
 30
0
 40
2.9999999999999876
 50
237.15866056366107
 51
270.00000000000045
  0
ARC
  8
layer2
 10
27.040292706367179
 20
67.999999999999986
 30
0
 40
2.9999999999999996
 50
269.99999999999943
 51
302.84133943633884
  0
ARC
  8
layer2
 10
40.990004241084478
 20
69.862862468666975
 30
0
 40
2.9999999999999996
 50
59.598958991213657
 51
122.8413394363393
  0
ARC
  8
layer2
 10
-40.990004241084478
 20
69.862862468666975
 30
0
 40
3.0000000000000084
 50
57.15866056366086
 51
120.40104100878672
  0
ARC
  8
layer2
 10
0
 20
7.1054273576010019e-015
 30
0
 40
84
 50
26.686336536808597
 51
59.598958991213529
  0
ARC
  8
layer2
 10
1.5631940186722204e-013
 20
-1.2789769243681803e-013
 30
0
 40
84.000000000000199
 50
120.40104100878654
 51
153.31366346319143
  0
ARC
  8
layer2
 10
27.040292706367193
 20
-67.999999999999986
 30
0
 40
2.9999999999999942
 50
57.158660563661208
 51
90.000000000000497
  0
ARC
  8
layer2
 10
-27.040292706367165
 20
-67.999999999999986
 30
0
 40
2.9999999999999978
 50
89.999999999999531
 51
122.84133943633881
  0
ARC
  8
layer2
 10
-40.990004241084485
 20
-69.862862468666862
 30
0
 40
3.000000000000107
 50
239.5989589912117
 51
302.8413394363381
  0
ARC
  8
layer2
 10
-2.3447910280083306e-013
 20
8.5265128291212022e-014
 30
0
 40
84.000000000000242
 50
300.40104100878648
 51
333.31366346318907
  0
ARC
  8
layer2
 10
-71.296357718988887
 20
40.64617959998786
 30
0
 40
0.99999999999999512
 50
36.425150701552866
 51
150.10701385069822
  0
ARC
  8
layer2
 10
-71.840567344623011
 20
39.699501900934834
 30
0
 40
0.9999999999999799
 50
150.10701385069783
 51
216.42515070155304
  0
ARC
  8
layer2
 10
-71.840567344622997
 20
-39.69950190093482
 30
0
 40
0.999999999999997
 50
143.57484929844713
 51
209.89298614930212
  0
ARC
  8
layer2
 10
-71.296357718988901
 20
-40.646179599987832
 30
0
 40
0.99999999999999789
 50
209.8929861493036
 51
323.57484929844793
  0
ARC
  8
layer2
 10
-55.099999999999987
 20
-24.59241369375448
 30
0
 40
2.9999999999999885
 50
323.57484929844668
 51
359.99999999999926
  0
ARC
  8
layer2
 10
-52.100000000000009
 20
-25.579354085659283
 30
0
 40
3.0000000000000093
 50
323.57484929844759
 51
6.7851833204554865e-014
  0
ARC
  8
layer2
 10
-66.603699843771921
 20
-46.917912166227723
 30
0
 40
0.99999999999999645
 50
143.57484929844603
 51
216.09045550849964
  0
ARC
  8
layer2
 10
-65.986155464614598
 20
-47.765073290849912
 30
0
 40
0.99999999999999267
 50
216.09045550849964
 51
323.57484929844713
  0
ARC
  8
layer2
 10
-66.603699843771921
 20
46.917912166227737
 30
0
 40
0.99999999999998201
 50
143.90954449150098
 51
216.42515070155335
  0
ARC
  8
layer2
 10
-65.986155464614612
 20
47.765073290849926
 30
0
 40
0.99999999999999378
 50
36.425150701551722
 51
143.90954449149885
  0
ARC
  8
layer2
 10
-55.099999999999987
 20
24.59241369375453
 30
0
 40
2.9999999999999853
 50
0
 51
36.425150701552568
  0
ARC
  8
layer2
 10
-52.100000000000001
 20
25.579354085659297
 30
0
 40
3.0000000000000009
 50
4.0711099922733015e-013
 51
36.425150701552944
  0
ARC
  8
layer2
 10
-72.371759562163177
 20
36.377581253794993
 30
0
 40
2.9999999999999192
 50
153.31366346319263
 51
216.42515070156074
  0
ARC
  8
layer2
 10
-63.600000000000009
 20
21.79594348885065
 30
0
 40
3.0000000000000102
 50
359.99999999999977
 51
36.425150701552241
  0
ARC
  8
layer2
 10
-60.600000000000001
 20
22.783022975262426
 30
0
 40
2.9999999999999933
 50
2.7140733281822077e-013
 51
36.425150701552781
  0
ARC
  8
layer2
 10
-72.371759562161728
 20
-36.377581253797857
 30
0
 40
2.9999999999999161
 50
143.57484929844676
 51
206.6863365368097
  0
ARC
  8
layer2
 10
-63.599999999999994
 20
-21.795943488850636
 30
0
 40
2.9999999999999902
 50
323.5748492984477
 51
1.3570366640911039e-013
  0
ARC
  8
layer2
 10
-60.59999999999998
 20
-22.783022975262366
 30
0
 40
2.9999999999999991
 50
323.57484929844679
 51
359.99999999999932
  0
ARC
  8
layer2
 10
71.840567344622983
 20
-39.699501900934862
 30
0
 40
0.99999999999999212
 50
330.10701385069859
 51
36.425150701554003
  0
ARC
  8
layer2
 10
63.59999999999998
 20
-21.795943488850643
 30
0
 40
3
 50
179.99999999999994
 51
216.42515070155252
  0
ARC
  8
layer2
 10
63.599999999999987
 20
21.795943488850622
 30
0
 40
2.9999999999999782
 50
143.57484929844716
 51
179.99999999999986
  0
ARC
  8
layer2
 10
60.599999999999987
 20
-22.783022975262391
 30
0
 40
3.0000000000000071
 50
180.00000000000031
 51
216.42515070155292
  0
ARC
  8
layer2
 10
71.296357718988887
 20
-40.646179599987875
 30
0
 40
0.99999999999998923
 50
216.42515070155221
 51
330.10701385069711
  0
ARC
  8
layer2
 10
60.600000000000009
 20
22.783022975262394
 30
0
 40
2.9999999999999982
 50
143.57484929844705
 51
179.99999999999974
  0
ARC
  8
layer2
 10
71.296357718988901
 20
40.646179599987832
 30
0
 40
0.99999999999999722
 50
29.89298614930248
 51
143.57484929844748
  0
ARC
  8
layer2
 10
71.840567344623025
 20
39.699501900934813
 30
0
 40
0.99999999999997746
 50
323.57484929844583
 51
29.892986149301478
  0
ARC
  8
layer2
 10
55.099999999999994
 20
-24.592413693754501
 30
0
 40
3.0000000000000071
 50
180.00000000000031
 51
216.42515070155292
  0
ARC
  8
layer2
 10
65.986155464614583
 20
-47.765073290849948
 30
0
 40
0.99999999999999334
 50
216.42515070155252
 51
323.90954449150036
  0
ARC
  8
layer2
 10
52.100000000000001
 20
-25.579354085659332
 30
0
 40
3.0000000000000027
 50
179.9999999999994
 51
216.42515070155184
  0
ARC
  8
layer2
 10
66.603699843771878
 20
-46.917912166227744
 30
0
 40
0.99999999999999789
 50
323.90954449150081
 51
36.42515070155352
  0
ARC
  8
layer2
 10
55.09999999999998
 20
24.592413693754487
 30
0
 40
2.9999999999999751
 50
143.57484929844674
 51
179.9999999999994
  0
ARC
  8
layer2
 10
52.099999999999994
 20
25.57935408565929
 30
0
 40
2.9999999999999849
 50
143.57484929844719
 51
179.9999999999998
  0
ARC
  8
layer2
 10
65.986155464614612
 20
47.765073290849905
 30
0
 40
0.99999999999999212
 50
36.0904555085
 51
143.57484929844779
  0
ARC
  8
layer2
 10
66.603699843771921
 20
46.917912166227701
 30
0
 40
1.0000000000000089
 50
323.57484929844793
 51
36.090455508500668
  0
ARC
  8
layer2
 10
-44.09560799561811
 20
69.010934498141367
 30
0
 40
1.0000000000000031
 50
57.158660563660256
 51
123.71045013293072
  0
ARC
  8
layer2
 10
-45.274346313384356
 20
68.224503112368353
 30
0
 40
0.99999999999999523
 50
123.7104501329315
 51
237.15866056366093
  0
ARC
  8
layer2
 10
-28.492227766134757
 20
63.700210887664788
 30
0
 40
3
 50
237.15866056366039
 51
269.99999999999972
  0
ARC
  8
layer2
 10
-29.464741003432025
 20
60.400210887664777
 30
0
 40
2.9999999999999849
 50
237.15866056366053
 51
270.00000000000006
  0
ARC
  8
layer2
 10
45.274346313384385
 20
68.224503112368325
 30
0
 40
0.99999999999998923
 50
302.84133943634021
 51
56.289549867069177
  0
ARC
  8
layer2
 10
44.095607995618131
 20
69.010934498141324
 30
0
 40
1.0000000000000189
 50
56.2895498670702
 51
122.84133943633998
  0
ARC
  8
layer2
 10
28.492227766134775
 20
63.700210887664795
 30
0
 40
3.0000000000000084
 50
270.00000000000028
 51
302.84133943633958
  0
ARC
  8
layer2
 10
29.464741003432039
 20
60.400210887664798
 30
0
 40
3.0000000000000049
 50
270
 51
302.8413394363393
  0
ARC
  8
layer2
 10
-51.453281006361557
 20
63.286186573926315
 30
0
 40
0.99999999999999345
 50
57.158660563659815
 51
129.90031454339697
  0
ARC
  8
layer2
 10
-52.015603812714438
 20
62.81600648285557
 30
0
 40
0.99999999999999412
 50
129.90031454339751
 51
237.15866056366036
  0
ARC
  8
layer2
 10
52.015603812714446
 20
62.816006482855549
 30
0
 40
1.0000000000000071
 50
302.84133943633918
 51
50.099685456602117
  0
ARC
  8
layer2
 10
51.453281006361557
 20
63.286186573926315
 30
0
 40
0.99999999999998601
 50
50.099685456602529
 51
122.8413394363395
  0
ARC
  8
layer2
 10
-31.085596398927404
 20
54.900210887664755
 30
0
 40
2.999999999999976
 50
237.15866056366008
 51
269.99999999999949
  0
ARC
  8
layer2
 10
-31.881289047625174
 20
52.20021088766476
 30
0
 40
2.9999999999999778
 50
237.15866056366076
 51
270.00000000000028
  0
ARC
  8
layer2
 10
31.085596398927422
 20
54.900210887664791
 30
0
 40
3.0000000000000155
 50
270.00000000000057
 51
302.84133943633975
  0
ARC
  8
layer2
 10
31.881289047625199
 20
52.200210887664788
 30
0
 40
3.0000000000000093
 50
269.99999999999966
 51
302.84133943633907
  0
ARC
  8
layer2
 10
-28.492227766134786
 20
-63.700210887664802
 30
0
 40
3.0000000000000133
 50
89.99999999999973
 51
122.84133943633903
  0
ARC
  8
layer2
 10
-29.464741003432039
 20
-60.400210887664777
 30
0
 40
2.9999999999999845
 50
89.999999999999872
 51
122.84133943633915
  0
ARC
  8
layer2
 10
-45.274346313384385
 20
-68.224503112368325
 30
0
 40
0.99999999999998868
 50
122.84133943634018
 51
236.28954986706918
  0
ARC
  8
layer2
 10
-44.095607995618131
 20
-69.010934498141339
 30
0
 40
1.0000000000000073
 50
236.28954986706975
 51
302.84133943634043
  0
ARC
  8
layer2
 10
28.492227766134789
 20
-63.700210887664809
 30
0
 40
3.0000000000000062
 50
57.158660563660973
 51
90.000000000000341
  0
ARC
  8
layer2
 10
29.464741003432021
 20
-60.400210887664791
 30
0
 40
3.0000000000000013
 50
57.158660563660654
 51
90
  0
ARC
  8
layer2
 10
45.274346313384356
 20
-68.224503112368353
 30
0
 40
0.999999999999995
 50
303.7104501329315
 51
57.158660563660945
  0
ARC
  8
layer2
 10
44.09560799561811
 20
-69.010934498141367
 30
0
 40
1.000000000000002
 50
237.15866056366025
 51
303.7104501329307
  0
ARC
  8
layer2
 10
-31.085596398927446
 20
-54.900210887664798
 30
0
 40
3.0000000000000204
 50
89.999999999999673
 51
122.84133943633893
  0
ARC
  8
layer2
 10
-31.881289047625192
 20
-52.200210887664774
 30
0
 40
2.9999999999999964
 50
89.999999999999801
 51
122.84133943633911
  0
ARC
  8
layer2
 10
-52.015603812714453
 20
-62.816006482855563
 30
0
 40
1.000000000000002
 50
122.84133943633884
 51
230.09968545660183
  0
ARC
  8
layer2
 10
-51.453281006361564
 20
-63.286186573926301
 30
0
 40
1.000000000000004
 50
230.09968545660243
 51
302.84133943633941
  0
ARC
  8
layer2
 10
31.085596398927429
 20
-54.900210887664805
 30
0
 40
3.0000000000000049
 50
57.158660563660483
 51
89.999999999999801
  0
ARC
  8
layer2
 10
31.881289047625174
 20
-52.200210887664788
 30
0
 40
3.0000000000000089
 50
57.158660563660675
 51
90.000000000000071
  0
ARC
  8
layer2
 10
52.015603812714438
 20
-62.816006482855563
 30
0
 40
0.99999999999999989
 50
309.90031454339726
 51
57.158660563660597
  0
ARC
  8
layer2
 10
51.453281006361557
 20
-63.286186573926308
 30
0
 40
0.99999999999999811
 50
237.15866056365968
 51
309.90031454339669
  0
ARC
  8
layer2
 10
58.265827322542521
 20
54.228438853870188
 30
0
 40
1.7499999999999978
 50
323.57484929844742
 51
122.2906526043195
  0
ARC
  8
layer2
 10
41.499658397910494
 20
30.245136955886593
 30
0
 40
0.999999999999995
 50
224.99999999999983
 51
323.5748492984473
  0
ARC
  8
layer2
 10
29.719464513359394
 20
41.318224059251143
 30
0
 40
0.50000000000000089
 50
90.000000000000398
 51
225.00000000000028
  0
ARC
  8
layer2
 10
58.265827322542521
 20
-54.228438853870188
 30
0
 40
1.7499999999999976
 50
237.70934739568048
 51
36.425150701552582
  0
ARC
  8
layer2
 10
29.719464513359394
 20
-41.318224059251143
 30
0
 40
0.50000000000000067
 50
134.99999999999972
 51
269.9999999999996
  0
ARC
  8
layer2
 10
41.499658397910494
 20
-30.245136955886593
 30
0
 40
0.99999999999999512
 50
36.425150701552703
 51
135.00000000000017
  0
ARC
  8
layer2
 10
-58.265827322542513
 20
54.228438853870195
 30
0
 40
1.7499999999999998
 50
57.709347395680503
 51
216.42515070155278
  0
ARC
  8
layer2
 10
-29.719464513359387
 20
41.318224059251158
 30
0
 40
0.500000000000002
 50
315
 51
90.000000000000398
  0
ARC
  8
layer2
 10
-41.499658397910487
 20
30.245136955886597
 30
0
 40
0.99999999999999989
 50
216.42515070155261
 51
315
  0
ARC
  8
layer2
 10
-58.265827322542535
 20
-54.228438853870166
 30
0
 40
1.7499999999999953
 50
143.57484929844742
 51
302.29065260431929
  0
ARC
  8
layer2
 10
-29.719464513359405
 20
-41.318224059251129
 30
0
 40
0.49999999999999944
 50
269.9999999999996
 51
44.999999999999432
  0
ARC
  8
layer2
 10
-41.499658397910508
 20
-30.245136955886576
 30
0
 40
0.99999999999999856
 50
45
 51
143.57484929844753
  0
ARC
  8
layer2
 10
40.990004241084506
 20
-69.862862468667089
 30
0
 40
2.9999999999999281
 50
237.15866056365934
 51
300.401041008785
  0
ENDSEC
  0
EOF
