  0
SECTION
  2
HEADER
  9
$INSBASE
 10
0.0000
 20
0.0000
  9
$EXTMIN
 10
-128.48528137423864
 20
-128.4852813742387
  9
$EXTMAX
 10
128.48528137423861
 20
128.4852813742387
  9
$LIMMIN
 10
-128.48528137423864
 20
-128.4852813742387
  9
$LIMMAX
 10
128.48528137423861
 20
128.4852813742387
  9
$TEXTSTYLE
  7
STANDARD
  9
$CLAYER
  8
default
  0
ENDSEC
  0
SECTION
  2
TABLES
  0
TABLE
  2
LTYPE
 70
4948253
  0
LTYPE
  2
CONTINUOUS
 70
    64
  3
Solid line
 72
    65
 73
     0
 40
0.0
  0
ENDTAB
  0
TABLE
  2
LAYER
 70
     5
  0
LAYER
  2
default
 70
    64
 62
     7
  6
CONTINUOUS
  0
LAYER
  2
layer2
 70
    64
 62
     7
  6
CONTINUOUS
  0
LAYER
  2
layer1
 70
    64
 62
     7
  6
CONTINUOUS
  0
ENDTAB
  0
TABLE
  2
STYLE
 70
     1
  0
STYLE
  2
STANDARD
 70
     0
 40
0.0
 41
1.0
 50
0.0
 71
     0
 42
0.2
  3
txt
  4

  0
ENDTAB
  0
TABLE
  2
VIEW
 70
     0
  0
ENDTAB
  0
ENDSEC
  0
SECTION
  2
BLOCKS
  0
ENDSEC
  0
SECTION
  2
ENTITIES
  0
LINE
  8
layer2
 10
86.681889999999981
 20
61.521883000000003
 30
0.0
 11
79.085841055691574
 21
56.446365037211969
 31
0.0
  0
LINE
  8
layer2
 10
68.123347999999993
 20
55.758082000000002
 30
0.0
 11
74.991923861801169
 21
61.781661817290988
 31
0.0
  0
LINE
  8
layer2
 10
106.219735
 20
16.770500999999999
 30
0.0
 11
106.94091
 21
11.292631
 31
0.0
  0
LINE
  8
layer2
 10
8.7435629999999982
 20
87.597398999999967
 30
0.0
 11
9.3410655297586871
 21
96.713529954029951
 31
0.0
  0
LINE
  8
layer2
 10
73.030422000000002
 20
43.492038999999998
 30
0.0
 11
73.600076000000001
 21
43.820928999999992
 31
0.0
  0
LINE
  8
layer2
 10
66.728785999999999
 20
52.652341999999997
 30
0.0
 11
67.250637999999995
 21
53.052773000000002
 31
0.0
  0
LINE
  8
layer2
 10
80.233354999999989
 20
36.226551999999998
 30
0.0
 11
88.426906737201563
 21
40.267164616974846
 31
0.0
  0
LINE
  8
layer2
 10
56.540219
 20
90.010531
 30
0.0
 11
51.464701254717234
 21
82.414482381211371
 31
0.0
  0
LINE
  8
layer2
 10
67.805240999999995
 20
81.860499000000004
 30
0.0
 11
61.781661817291052
 21
74.991923861801112
 31
0.0
  0
LINE
  8
layer2
 10
78.082487
 20
33.587575999999999
 30
0.0
 11
78.690196
 21
33.839297000000002
 31
0.0
  0
LINE
  8
layer2
 10
25.154610000000002
 20
104.552032
 30
0.0
 11
30.491484
 21
103.122021
 31
0.0
  0
LINE
  8
layer2
 10
11.292631
 20
106.94091
 30
0.0
 11
16.770500999999999
 21
106.219735
 31
0.0
  0
LINE
  8
layer2
 10
74.818432999999999
 20
46.389183000000003
 30
0.0
 11
82.414482381211386
 21
51.464701254717227
 31
0.0
  0
LINE
  8
layer2
 10
41.60007199999999
 20
77.583427999999998
 30
0.0
 11
45.640685095609406
 21
85.776979693876569
 31
0.0
  0
LINE
  8
layer2
 10
83.029188999999988
 20
21.057037000000001
 30
0.0
 11
82.393821000000003
 21
20.886794999999999
 31
0.0
  0
LINE
  8
layer2
 10
61.376868999999999
 20
59.750523000000001
 30
0.0
 11
60.91174500000001
 21
59.285406000000002
 31
0.0
  0
LINE
  8
layer2
 10
68.650789000000003
 20
51.228059999999999
 30
0.0
 11
68.128934999999998
 21
50.827632999999992
 31
0.0
  0
LINE
  8
layer2
 10
9.9535490000000006
 20
84.415205000000014
 30
0.0
 11
10.039407000000001
 21
85.067357000000001
 31
0.0
  0
LINE
  8
layer2
 10
20.102515
 20
85.706727000000015
 30
0.0
 11
21.884800120622465
 21
94.666878606409639
 31
0.0
  0
LINE
  8
layer2
 10
63.250160000000001
 20
86.967230000000001
 30
0.0
 11
67.633546999999993
 21
83.603738000000007
 31
0.0
  0
LINE
  8
layer2
 10
12.31973
 20
84.76714699999998
 30
0.0
 11
12.233867999999999
 21
84.114996000000005
 31
0.0
  0
LINE
  8
layer2
 10
105.82966
 20
9.9385680000000001
 30
0.0
 11
96.713529954029966
 21
9.3410655297586818
 31
0.0
  0
LINE
  8
layer2
 10
3.9599999999999991
 20
106.22151599999999
 30
0.0
 11
3.3624970344202842
 21
97.105386025152129
 31
0.0
  0
LINE
  8
layer2
 10
107.5
 20
2.7625690000000001
 30
0.0
 11
107.5
 21
0
 31
0.0
  0
LINE
  8
layer2
 10
41.500180999999991
 20
74.180421999999979
 30
0.0
 11
41.829070999999999
 21
74.750076000000007
 31
0.0
  0
LINE
  8
layer2
 10
99.651311000000007
 20
36.990651
 30
0.0
 11
91.000450790585404
 21
34.054079598640435
 31
0.0
  0
LINE
  8
layer2
 10
31.317218
 20
101.57718199999999
 30
0.0
 11
28.380646596184622
 21
92.926321783350318
 31
0.0
  0
LINE
  8
layer2
 10
59.285401999999998
 20
60.911748000000003
 30
0.0
 11
59.750523000000001
 21
61.376868999999999
 31
0.0
  0
LINE
  8
layer2
 10
31.462653
 20
78.962659000000002
 30
0.0
 11
31.714375
 21
79.570368000000002
 31
0.0
  0
LINE
  8
layer2
 10
81.798539000000005
 20
23.108419999999999
 30
0.0
 11
82.433904999999982
 21
23.278666000000001
 31
0.0
  0
LINE
  8
layer2
 10
103.62702899999999
 20
23.667085
 30
0.0
 11
94.666878606409639
 21
21.884800120622458
 31
0.0
  0
LINE
  8
layer2
 10
84.992220000000003
 20
1.149999999999999
 30
0.0
 11
85.650000000000006
 21
1.149999999999999
 31
0.0
  0
LINE
  8
layer2
 10
43.820928999999992
 20
73.600076000000001
 30
0.0
 11
43.492035000000001
 21
73.030423999999982
 31
0.0
  0
LINE
  8
layer2
 10
23.278666000000001
 20
82.433904999999982
 30
0.0
 11
23.108415999999998
 21
81.798540000000003
 31
0.0
  0
LINE
  8
layer2
 10
51.357545000000002
 20
94.479015999999987
 30
0.0
 11
56.142454999999991
 21
91.716446000000005
 31
0.0
  0
LINE
  8
layer2
 10
60.262653
 20
64.172944999999999
 30
0.0
 11
66.286232691328138
 21
71.041521218167858
 31
0.0
  0
LINE
  8
layer2
 10
77.910096999999979
 20
72.30981199999998
 30
0.0
 11
71.041521218167929
 21
66.286232691328081
 31
0.0
  0
LINE
  8
layer2
 10
31.117508000000001
 20
82.349590000000006
 30
0.0
 11
34.054079598640442
 21
91.000450790585404
 31
0.0
  0
LINE
  8
layer2
 10
74.060547
 20
77.967410000000001
 30
0.0
 11
77.967410000000001
 21
74.060547
 31
0.0
  0
LINE
  8
layer2
 10
33.839297000000002
 20
78.690196
 30
0.0
 11
33.587572000000002
 21
78.082488999999981
 31
0.0
  0
LINE
  8
layer2
 10
98.259860000000003
 20
43.690750000000001
 30
0.0
 11
100.374239
 21
38.586188
 31
0.0
  0
LINE
  8
layer2
 10
84.114994999999965
 20
12.233872
 30
0.0
 11
84.76714699999998
 21
12.31973
 31
0.0
  0
LINE
  8
layer2
 10
51.370846999999991
 20
71.489791999999994
 30
0.0
 11
56.446365037211969
 21
79.085841055691574
 31
0.0
  0
LINE
  8
layer2
 10
93.970530999999994
 20
49.681297999999991
 30
0.0
 11
85.776979693876555
 21
45.640685095609427
 31
0.0
  0
LINE
  8
layer2
 10
20.886790999999999
 20
82.393821999999986
 30
0.0
 11
21.057037000000001
 21
83.029188999999988
 31
0.0
  0
LINE
  8
layer2
 10
85.067357000000001
 20
10.039407000000001
 30
0.0
 11
84.415205000000014
 21
9.9535540000000005
 31
0.0
  0
LINE
  8
layer2
 10
38.586188
 20
100.374239
 30
0.0
 11
43.690750000000001
 21
98.259860000000003
 31
0.0
  0
LINE
  8
layer2
 10
1.149999999999999
 20
85.650000000000006
 30
0.0
 11
1.1499950000000001
 21
84.992220000000003
 31
0.0
  0
LINE
  8
layer2
 10
87.989255000000014
 20
2.7649940000000002
 30
0.0
 11
97.105386025152129
 21
3.3624970344201701
 31
0.0
  0
LINE
  8
layer2
 10
53.052773000000002
 20
67.250637999999995
 30
0.0
 11
52.652338
 21
66.728789000000006
 31
0.0
  0
LINE
  8
layer2
 10
50.827629000000002
 20
68.128936999999993
 30
0.0
 11
51.228059999999999
 21
68.650789000000003
 31
0.0
  0
LINE
  8
layer2
 10
79.570368000000002
 20
31.714375
 30
0.0
 11
78.962656999999979
 21
31.462657
 31
0.0
  0
LINE
  8
layer2
 10
83.603738000000007
 20
67.633546999999993
 30
0.0
 11
86.967230000000001
 21
63.250160000000001
 31
0.0
  0
LINE
  8
layer2
 10
91.716446000000005
 20
56.142454999999991
 30
0.0
 11
94.479015999999987
 21
51.357545000000002
 31
0.0
  0
LINE
  8
layer2
 10
44.307777000000002
 20
96.620458000000013
 30
0.0
 11
40.267164616974846
 21
88.426906737201563
 31
0.0
  0
LINE
  8
layer2
 10
74.750076000000007
 20
41.829070999999999
 30
0.0
 11
74.180419999999984
 21
41.500185000000002
 31
0.0
  0
LINE
  8
layer2
 10
84.275461000000007
 20
25.444075000000002
 30
0.0
 11
92.926321783350332
 21
28.380646596184594
 31
0.0
  0
LINE
  8
layer2
 10
17.790811999999999
 20
104.79589300000001
 30
0.0
 11
16.008527000000015
 21
95.83574200000001
 31
0.0
  0
LINE
  8
layer2
 10
86.875590999999986
 20
14.226241999999999
 30
0.0
 11
95.83574200000001
 21
16.008527000000015
 31
0.0
  0
LINE
  8
layer2
 10
103.122021
 20
30.491484
 30
0.0
 11
104.552032
 21
25.154610000000002
 31
0.0
  0
LINE
  8
layer2
 10
6.6e-015
 20
107.5
 30
0.0
 11
2.7625690000000001
 21
107.5
 31
0.0
  0
LINE
  8
layer2
 10
10.039407000000001
 20
85.067357000000001
 30
0.0
 11
12.31973
 21
84.76714699999998
 31
0.0
  0
LINE
  8
layer2
 10
21.057037000000001
 20
83.029188999999988
 30
0.0
 11
23.278666000000001
 21
82.433904999999982
 31
0.0
  0
LINE
  8
layer2
 10
31.714375
 20
79.570368000000002
 30
0.0
 11
33.839297000000002
 21
78.690196
 31
0.0
  0
LINE
  8
layer2
 10
41.829070999999999
 20
74.750076000000007
 30
0.0
 11
43.820928999999992
 21
73.600076000000001
 31
0.0
  0
LINE
  8
layer2
 10
51.228059999999999
 20
68.650789000000003
 30
0.0
 11
53.052773000000002
 21
67.250637999999995
 31
0.0
  0
LINE
  8
layer2
 10
59.750523000000001
 20
61.376868999999999
 30
0.0
 11
61.376868999999999
 21
59.750523000000001
 31
0.0
  0
LINE
  8
layer2
 10
67.250637999999995
 20
53.052773000000002
 30
0.0
 11
68.650789000000003
 21
51.228059999999999
 31
0.0
  0
LINE
  8
layer2
 10
73.600076000000001
 20
43.820928999999992
 30
0.0
 11
74.750076000000007
 21
41.829070999999999
 31
0.0
  0
LINE
  8
layer2
 10
78.690196
 20
33.839297000000002
 30
0.0
 11
79.570368000000002
 21
31.714375
 31
0.0
  0
LINE
  8
layer2
 10
82.433904999999982
 20
23.278666000000001
 30
0.0
 11
83.029188999999988
 21
21.057037000000001
 31
0.0
  0
LINE
  8
layer2
 10
84.76714699999998
 20
12.31973
 30
0.0
 11
85.067357000000001
 21
10.039407000000001
 31
0.0
  0
LINE
  8
layer2
 10
85.650000000000006
 20
1.149999999999999
 30
0.0
 11
85.650000000000006
 21
0
 31
0.0
  0
LINE
  8
layer2
 10
-78.962659000000002
 20
31.462653
 30
0.0
 11
-79.570368000000002
 21
31.714375
 31
0.0
  0
LINE
  8
layer2
 10
-85.650000000000006
 20
1.149999999999999
 30
0.0
 11
-84.992220000000003
 21
1.1499950000000001
 31
0.0
  0
LINE
  8
layer2
 10
-77.583427999999998
 20
41.60007199999999
 30
0.0
 11
-85.776979693876484
 21
45.640685095609562
 31
0.0
  0
LINE
  8
layer2
 10
-82.349590000000006
 20
31.117508000000001
 30
0.0
 11
-91.00045079058539
 21
34.054079598640492
 31
0.0
  0
LINE
  8
layer2
 10
-82.433904999999982
 20
23.278666000000001
 30
0.0
 11
-81.798540000000003
 21
23.108415999999998
 31
0.0
  0
LINE
  8
layer2
 10
-86.967230000000001
 20
63.250160000000001
 30
0.0
 11
-83.603738000000007
 21
67.633546999999993
 31
0.0
  0
LINE
  8
layer2
 10
-84.415205000000014
 20
9.9535490000000006
 30
0.0
 11
-85.067357000000001
 21
10.039407000000001
 31
0.0
  0
LINE
  8
layer2
 10
-67.633546999999993
 20
83.603738000000007
 30
0.0
 11
-63.250160000000001
 21
86.967230000000001
 31
0.0
  0
LINE
  8
layer2
 10
-12.233872
 20
84.114994999999965
 30
0.0
 11
-12.31973
 21
84.76714699999998
 31
0.0
  0
LINE
  8
layer2
 10
-16.770500999999999
 20
106.219735
 30
0.0
 11
-11.292631
 21
106.94091
 31
0.0
  0
LINE
  8
layer2
 10
-43.690750000000001
 20
98.259860000000003
 30
0.0
 11
-38.586188
 21
100.374239
 31
0.0
  0
LINE
  8
layer2
 10
-10.039407000000001
 20
85.067357000000001
 30
0.0
 11
-9.9535540000000005
 21
84.415205000000014
 31
0.0
  0
LINE
  8
layer2
 10
-56.142454999999991
 20
91.716446000000005
 30
0.0
 11
-51.357545000000002
 21
94.479015999999987
 31
0.0
  0
LINE
  8
layer2
 10
-81.860499000000004
 20
67.805240999999995
 30
0.0
 11
-74.991923861801055
 21
61.781661817291116
 31
0.0
  0
LINE
  8
layer2
 10
-23.667085
 20
103.62702899999999
 30
0.0
 11
-21.884800120622472
 21
94.666878606409639
 31
0.0
  0
LINE
  8
layer2
 10
-59.750523000000001
 20
61.376868999999999
 30
0.0
 11
-59.285406000000002
 21
60.91174500000001
 31
0.0
  0
LINE
  8
layer2
 10
-104.552032
 20
25.154610000000002
 30
0.0
 11
-103.122021
 21
30.491484
 31
0.0
  0
LINE
  8
layer2
 10
-85.706727000000015
 20
20.102515
 30
0.0
 11
-94.666878606409668
 21
21.88480012062233
 31
0.0
  0
LINE
  8
layer2
 10
-23.108419999999999
 20
81.798539000000005
 30
0.0
 11
-23.278666000000001
 21
82.433904999999982
 31
0.0
  0
LINE
  8
layer2
 10
-51.228059999999999
 20
68.650789000000003
 30
0.0
 11
-50.827632999999992
 21
68.128934999999998
 31
0.0
  0
LINE
  8
layer2
 10
-55.758082000000002
 20
68.123347999999993
 30
0.0
 11
-61.781661817290967
 21
74.991923861801197
 31
0.0
  0
LINE
  8
layer2
 10
-94.479015999999987
 20
51.357545000000002
 30
0.0
 11
-91.716446000000005
 21
56.142454999999991
 31
0.0
  0
LINE
  8
layer2
 10
-84.76714699999998
 20
12.31973
 30
0.0
 11
-84.114996000000005
 21
12.233867999999999
 31
0.0
  0
LINE
  8
layer2
 10
-36.990651
 20
99.651311000000007
 30
0.0
 11
-34.054079598640456
 21
91.000450790585404
 31
0.0
  0
LINE
  8
layer2
 10
-73.600076000000001
 20
43.820928999999992
 30
0.0
 11
-73.030423999999982
 21
43.492035000000001
 31
0.0
  0
LINE
  8
layer2
 10
-100.374239
 20
38.586188
 30
0.0
 11
-98.259860000000003
 21
43.690750000000001
 31
0.0
  0
LINE
  8
layer2
 10
-71.489791999999994
 20
51.370846999999991
 30
0.0
 11
-79.08584105569156
 21
56.446365037211969
 31
0.0
  0
LINE
  8
layer2
 10
-68.128936999999993
 20
50.827629000000002
 30
0.0
 11
-68.650789000000003
 21
51.228059999999999
 31
0.0
  0
LINE
  8
layer2
 10
-72.30981199999998
 20
77.910096999999979
 30
0.0
 11
-66.286232691328081
 21
71.041521218167915
 31
0.0
  0
LINE
  8
layer2
 10
-1.149999999999999
 20
84.992220000000003
 30
0.0
 11
-1.149999999999999
 21
85.650000000000006
 31
0.0
  0
LINE
  8
layer2
 10
-31.714375
 20
79.570368000000002
 30
0.0
 11
-31.462657
 21
78.962656999999979
 31
0.0
  0
LINE
  8
layer2
 10
-104.79589300000001
 20
17.790811999999999
 30
0.0
 11
-95.83574200000001
 21
16.008527000000022
 31
0.0
  0
LINE
  8
layer2
 10
-30.491484
 20
103.122021
 30
0.0
 11
-25.154610000000002
 21
104.552032
 31
0.0
  0
LINE
  8
layer2
 10
-43.492038999999998
 20
73.030422000000002
 30
0.0
 11
-43.820928999999992
 21
73.600076000000001
 31
0.0
  0
LINE
  8
layer2
 10
-41.829070999999999
 20
74.750076000000007
 30
0.0
 11
-41.500185000000002
 21
74.180419999999984
 31
0.0
  0
LINE
  8
layer2
 10
-77.967410000000001
 20
74.060547
 30
0.0
 11
-74.060547
 21
77.967410000000001
 31
0.0
  0
LINE
  8
layer2
 10
-82.393821999999986
 20
20.886790999999999
 30
0.0
 11
-83.029188999999988
 21
21.057037000000001
 31
0.0
  0
LINE
  8
layer2
 10
-25.444075000000002
 20
84.275461000000007
 30
0.0
 11
-28.380646596184569
 21
92.926321783350346
 31
0.0
  0
LINE
  8
layer2
 10
-67.250637999999995
 20
53.052773000000002
 30
0.0
 11
-66.728789000000006
 21
52.652338
 31
0.0
  0
LINE
  8
layer2
 10
-46.389183000000003
 20
74.818432999999999
 30
0.0
 11
-51.464701254717184
 21
82.414482381211414
 31
0.0
  0
LINE
  8
layer2
 10
-60.911748000000003
 20
59.285401999999998
 30
0.0
 11
-61.376868999999999
 21
59.750523000000001
 31
0.0
  0
LINE
  8
layer2
 10
-74.180421999999979
 20
41.500180999999991
 30
0.0
 11
-74.750076000000007
 21
41.829070999999999
 31
0.0
  0
LINE
  8
layer2
 10
-87.597398999999967
 20
8.7435629999999982
 30
0.0
 11
-96.713529954029951
 21
9.3410655297587173
 31
0.0
  0
LINE
  8
layer2
 10
-96.620458000000013
 20
44.307777000000002
 30
0.0
 11
-88.426906737201577
 21
40.267164616974817
 31
0.0
  0
LINE
  8
layer2
 10
-2.7649940000000002
 20
87.989255000000014
 30
0.0
 11
-3.3624970344202727
 21
97.105386025152129
 31
0.0
  0
LINE
  8
layer2
 10
-33.587575999999999
 20
78.082487
 30
0.0
 11
-33.839297000000002
 21
78.690196
 31
0.0
  0
LINE
  8
layer2
 10
-52.652341999999997
 20
66.728785999999999
 30
0.0
 11
-53.052773000000002
 21
67.250637999999995
 31
0.0
  0
LINE
  8
layer2
 10
-21.057037000000001
 20
83.029188999999988
 30
0.0
 11
-20.886794999999999
 21
82.393821000000003
 31
0.0
  0
LINE
  8
layer2
 10
-64.172944999999999
 20
60.262653
 30
0.0
 11
-71.041521218167816
 21
66.286232691328181
 31
0.0
  0
LINE
  8
layer2
 10
-78.690196
 20
33.839297000000002
 30
0.0
 11
-78.082488999999981
 21
33.587572000000002
 31
0.0
  0
LINE
  8
layer2
 10
-61.521883000000003
 20
86.681889999999981
 30
0.0
 11
-56.446365037212054
 21
79.085841055691489
 31
0.0
  0
LINE
  8
layer2
 10
-36.226551999999998
 20
80.233354999999989
 30
0.0
 11
-40.267164616974817
 21
88.426906737201577
 31
0.0
  0
LINE
  8
layer2
 10
-106.94091
 20
11.292631
 30
0.0
 11
-106.219735
 21
16.770500999999999
 31
0.0
  0
LINE
  8
layer2
 10
-90.010531
 20
56.540219
 30
0.0
 11
-82.414482381211315
 21
51.464701254717347
 31
0.0
  0
LINE
  8
layer2
 10
-14.226241999999999
 20
86.875590999999986
 30
0.0
 11
-16.008527000000022
 21
95.83574200000001
 31
0.0
  0
LINE
  8
layer2
 10
-106.22151599999999
 20
3.9599999999999991
 30
0.0
 11
-97.105386025152129
 21
3.3624970344203353
 31
0.0
  0
LINE
  8
layer2
 10
-2.7625690000000001
 20
107.5
 30
0.0
 11
6.6e-015
 21
107.5
 31
0.0
  0
LINE
  8
layer2
 10
-49.681297999999991
 20
93.970530999999994
 30
0.0
 11
-45.640685095609399
 21
85.776979693876569
 31
0.0
  0
LINE
  8
layer2
 10
-101.57718199999999
 20
31.317218
 30
0.0
 11
-92.926321783350332
 21
28.380646596184587
 31
0.0
  0
LINE
  8
layer2
 10
-9.9385680000000001
 20
105.82966
 30
0.0
 11
-9.3410655297586551
 21
96.713529954029966
 31
0.0
  0
LINE
  8
layer2
 10
-107.5
 20
0
 30
0.0
 11
-107.5
 21
2.7625690000000001
 31
0.0
  0
LINE
  8
layer2
 10
-10.039407000000001
 20
85.067357000000001
 30
0.0
 11
-12.31973
 21
84.76714699999998
 31
0.0
  0
LINE
  8
layer2
 10
-21.057037000000001
 20
83.029188999999988
 30
0.0
 11
-23.278666000000001
 21
82.433904999999982
 31
0.0
  0
LINE
  8
layer2
 10
-31.714375
 20
79.570368000000002
 30
0.0
 11
-33.839297000000002
 21
78.690196
 31
0.0
  0
LINE
  8
layer2
 10
-41.829070999999999
 20
74.750076000000007
 30
0.0
 11
-43.820928999999992
 21
73.600076000000001
 31
0.0
  0
LINE
  8
layer2
 10
-51.228059999999999
 20
68.650789000000003
 30
0.0
 11
-53.052773000000002
 21
67.250637999999995
 31
0.0
  0
LINE
  8
layer2
 10
-59.750523000000001
 20
61.376868999999999
 30
0.0
 11
-61.376868999999999
 21
59.750523000000001
 31
0.0
  0
LINE
  8
layer2
 10
-67.250637999999995
 20
53.052773000000002
 30
0.0
 11
-68.650789000000003
 21
51.228059999999999
 31
0.0
  0
LINE
  8
layer2
 10
-73.600076000000001
 20
43.820928999999992
 30
0.0
 11
-74.750076000000007
 21
41.829070999999999
 31
0.0
  0
LINE
  8
layer2
 10
-78.690196
 20
33.839297000000002
 30
0.0
 11
-79.570368000000002
 21
31.714375
 31
0.0
  0
LINE
  8
layer2
 10
-82.433904999999982
 20
23.278666000000001
 30
0.0
 11
-83.029188999999988
 21
21.057037000000001
 31
0.0
  0
LINE
  8
layer2
 10
-84.76714699999998
 20
12.31973
 30
0.0
 11
-85.067357000000001
 21
10.039407000000001
 31
0.0
  0
LINE
  8
layer2
 10
-85.650000000000006
 20
1.149999999999999
 30
0.0
 11
-85.650000000000006
 21
0
 31
0.0
  0
LINE
  8
layer2
 10
-1.149999999999999
 20
85.650000000000006
 30
0.0
 11
1.149999999999999
 21
85.650000000000006
 31
0.0
  0
LINE
  8
layer2
 10
-86.681890000000024
 20
-61.521883000000003
 30
0.0
 11
-79.085841055691603
 21
-56.446365037211912
 31
0.0
  0
LINE
  8
layer2
 10
-68.123347999999993
 20
-55.758082000000002
 30
0.0
 11
-74.991923861801055
 21
-61.78166181729113
 31
0.0
  0
LINE
  8
layer2
 10
-106.219735
 20
-16.770500999999982
 30
0.0
 11
-106.94091
 21
-11.292630999999989
 31
0.0
  0
LINE
  8
layer2
 10
-8.7435630000000089
 20
-87.597398999999967
 30
0.0
 11
-9.3410655297587208
 21
-96.713529954029951
 31
0.0
  0
LINE
  8
layer2
 10
-73.030422000000002
 20
-43.492038999999991
 30
0.0
 11
-73.600076000000001
 21
-43.820928999999992
 31
0.0
  0
LINE
  8
layer2
 10
-66.728785999999999
 20
-52.65234199999999
 30
0.0
 11
-67.250637999999995
 21
-53.052773000000002
 31
0.0
  0
LINE
  8
layer2
 10
-80.233354999999989
 20
-36.226551999999991
 30
0.0
 11
-88.426906737201591
 21
-40.267164616974796
 31
0.0
  0
LINE
  8
layer2
 10
-56.540219000000022
 20
-90.010531
 30
0.0
 11
-51.464701254717355
 21
-82.4144823812113
 31
0.0
  0
LINE
  8
layer2
 10
-67.805240999999995
 20
-81.860498999999976
 30
0.0
 11
-61.78166181729118
 21
-74.991923861801013
 31
0.0
  0
LINE
  8
layer2
 10
-78.082487
 20
-33.587575999999991
 30
0.0
 11
-78.690196
 21
-33.839296999999988
 31
0.0
  0
LINE
  8
layer2
 10
-25.154610000000019
 20
-104.552032
 30
0.0
 11
-30.49148400000001
 21
-103.122021
 31
0.0
  0
LINE
  8
layer2
 10
-11.292631000000011
 20
-106.94091
 30
0.0
 11
-16.77050100000001
 21
-106.219735
 31
0.0
  0
LINE
  8
layer2
 10
-74.818432999999999
 20
-46.389183000000003
 30
0.0
 11
-82.414482381211343
 21
-51.464701254717291
 31
0.0
  0
LINE
  8
layer2
 10
-41.60007199999999
 20
-77.583427999999998
 30
0.0
 11
-45.640685095609342
 21
-85.776979693876598
 31
0.0
  0
LINE
  8
layer2
 10
-83.029188999999988
 20
-21.05703699999999
 30
0.0
 11
-82.393821000000003
 21
-20.886794999999989
 31
0.0
  0
LINE
  8
layer2
 10
-61.376869000000013
 20
-59.750523000000001
 30
0.0
 11
-60.91174500000001
 21
-59.285406000000002
 31
0.0
  0
LINE
  8
layer2
 10
-68.650789000000003
 20
-51.228059999999992
 30
0.0
 11
-68.128934999999998
 21
-50.827632999999992
 31
0.0
  0
LINE
  8
layer2
 10
-9.9535490000000131
 20
-84.415205000000014
 30
0.0
 11
-10.03940700000001
 21
-85.067357000000001
 31
0.0
  0
LINE
  8
layer2
 10
-20.102515000000011
 20
-85.706727000000015
 30
0.0
 11
-21.88480012062233
 21
-94.666878606409668
 31
0.0
  0
LINE
  8
layer2
 10
-63.250160000000008
 20
-86.967229999999986
 30
0.0
 11
-67.633546999999993
 21
-83.603737999999964
 31
0.0
  0
LINE
  8
layer2
 10
-12.319730000000011
 20
-84.76714699999998
 30
0.0
 11
-12.23386800000001
 21
-84.114996000000005
 31
0.0
  0
LINE
  8
layer2
 10
-105.82966
 20
-9.9385679999999876
 30
0.0
 11
-96.713529954029966
 21
-9.3410655297585183
 31
0.0
  0
LINE
  8
layer2
 10
-3.960000000000012
 20
-106.22151599999999
 30
0.0
 11
-3.3624970344203824
 21
-97.105386025152129
 31
0.0
  0
LINE
  8
layer2
 10
-107.5
 20
-2.7625689999999858
 30
0.0
 11
-107.5
 21
0
 31
0.0
  0
LINE
  8
layer2
 10
-41.500181000000012
 20
-74.180421999999979
 30
0.0
 11
-41.829070999999999
 21
-74.750076000000007
 31
0.0
  0
LINE
  8
layer2
 10
-99.651311000000007
 20
-36.990650999999993
 30
0.0
 11
-91.00045079058539
 21
-34.054079598640463
 31
0.0
  0
LINE
  8
layer2
 10
-31.317218000000011
 20
-101.57718199999999
 30
0.0
 11
-28.380646596184551
 21
-92.926321783350346
 31
0.0
  0
LINE
  8
layer2
 10
-59.285402000000012
 20
-60.911748000000003
 30
0.0
 11
-59.750523000000008
 21
-61.376868999999992
 31
0.0
  0
LINE
  8
layer2
 10
-31.46265300000001
 20
-78.962659000000002
 30
0.0
 11
-31.714375000000011
 21
-79.570368000000002
 31
0.0
  0
LINE
  8
layer2
 10
-81.798539000000005
 20
-23.108419999999992
 30
0.0
 11
-82.433904999999982
 21
-23.278665999999991
 31
0.0
  0
LINE
  8
layer2
 10
-103.62702899999999
 20
-23.667084999999989
 30
0.0
 11
-94.666878606409668
 21
-21.884800120622298
 31
0.0
  0
LINE
  8
layer2
 10
-84.992220000000003
 20
-1.149999999999989
 30
0.0
 11
-85.650000000000006
 21
-1.149999999999989
 31
0.0
  0
LINE
  8
layer2
 10
-43.820929
 20
-73.600076000000001
 30
0.0
 11
-43.492035000000001
 21
-73.030423999999982
 31
0.0
  0
LINE
  8
layer2
 10
-23.278666000000008
 20
-82.433904999999982
 30
0.0
 11
-23.108416000000009
 21
-81.798540000000003
 31
0.0
  0
LINE
  8
layer2
 10
-51.357545000000009
 20
-94.479015999999987
 30
0.0
 11
-56.142455000000012
 21
-91.716446000000005
 31
0.0
  0
LINE
  8
layer2
 10
-60.262653000000007
 20
-64.172944999999984
 30
0.0
 11
-66.286232691328067
 21
-71.041521218167929
 31
0.0
  0
LINE
  8
layer2
 10
-77.910096999999993
 20
-72.30981199999998
 30
0.0
 11
-71.041521218167958
 21
-66.286232691328038
 31
0.0
  0
LINE
  8
layer2
 10
-31.117508000000011
 20
-82.349590000000006
 30
0.0
 11
-34.054079598640499
 21
-91.00045079058539
 31
0.0
  0
LINE
  8
layer2
 10
-74.060547000000014
 20
-77.967409999999987
 30
0.0
 11
-77.967410000000015
 21
-74.060546999999985
 31
0.0
  0
LINE
  8
layer2
 10
-33.839297000000009
 20
-78.690196
 30
0.0
 11
-33.587572000000009
 21
-78.082488999999981
 31
0.0
  0
LINE
  8
layer2
 10
-98.259860000000003
 20
-43.69074999999998
 30
0.0
 11
-100.374239
 21
-38.586187999999993
 31
0.0
  0
LINE
  8
layer2
 10
-84.114994999999965
 20
-12.233871999999989
 30
0.0
 11
-84.76714699999998
 21
-12.319729999999989
 31
0.0
  0
LINE
  8
layer2
 10
-51.370847000000012
 20
-71.489791999999994
 30
0.0
 11
-56.446365037211969
 21
-79.08584105569156
 31
0.0
  0
LINE
  8
layer2
 10
-93.970530999999994
 20
-49.681297999999977
 30
0.0
 11
-85.776979693876655
 21
-45.640685095609243
 31
0.0
  0
LINE
  8
layer2
 10
-20.886791000000009
 20
-82.393821999999986
 30
0.0
 11
-21.057037000000012
 21
-83.029188999999988
 31
0.0
  0
LINE
  8
layer2
 10
-85.067357000000001
 20
-10.03940699999999
 30
0.0
 11
-84.415205000000014
 21
-9.953553999999988
 31
0.0
  0
LINE
  8
layer2
 10
-38.586188000000021
 20
-100.374239
 30
0.0
 11
-43.690750000000023
 21
-98.259860000000003
 31
0.0
  0
LINE
  8
layer2
 10
-1.1500000000000099
 20
-85.650000000000006
 30
0.0
 11
-1.1499950000000101
 21
-84.992220000000003
 31
0.0
  0
LINE
  8
layer2
 10
-87.989255000000014
 20
-2.7649939999999891
 30
0.0
 11
-97.105386025152129
 21
-3.3624970344202216
 31
0.0
  0
LINE
  8
layer2
 10
-53.052773000000009
 20
-67.250637999999995
 30
0.0
 11
-52.652338
 21
-66.728789000000006
 31
0.0
  0
LINE
  8
layer2
 10
-50.827629000000009
 20
-68.128936999999993
 30
0.0
 11
-51.228059999999999
 21
-68.650789000000003
 31
0.0
  0
LINE
  8
layer2
 10
-79.570368000000002
 20
-31.71437499999999
 30
0.0
 11
-78.962656999999979
 21
-31.462656999999989
 31
0.0
  0
LINE
  8
layer2
 10
-83.603738000000035
 20
-67.633546999999979
 30
0.0
 11
-86.967230000000015
 21
-63.250160000000001
 31
0.0
  0
LINE
  8
layer2
 10
-91.716446000000005
 20
-56.142454999999991
 30
0.0
 11
-94.479015999999987
 21
-51.357544999999988
 31
0.0
  0
LINE
  8
layer2
 10
-44.307777000000009
 20
-96.620458000000013
 30
0.0
 11
-40.267164616974981
 21
-88.426906737201506
 31
0.0
  0
LINE
  8
layer2
 10
-74.750076000000007
 20
-41.829070999999992
 30
0.0
 11
-74.180419999999984
 21
-41.500185000000002
 31
0.0
  0
LINE
  8
layer2
 10
-84.275461000000007
 20
-25.444074999999991
 30
0.0
 11
-92.926321783350403
 21
-28.380646596184356
 31
0.0
  0
LINE
  8
layer2
 10
-17.79081200000001
 20
-104.79589300000001
 30
0.0
 11
-16.008527000000154
 21
-95.835741999999982
 31
0.0
  0
LINE
  8
layer2
 10
-86.875590999999986
 20
-14.22624199999999
 30
0.0
 11
-95.835742000000025
 21
-16.008526999999908
 31
0.0
  0
LINE
  8
layer2
 10
-103.122021
 20
-30.491483999999989
 30
0.0
 11
-104.552032
 21
-25.154609999999991
 31
0.0
  0
LINE
  8
layer2
 10
-1.9700000000000001e-014
 20
-107.5
 30
0.0
 11
-2.7625690000000129
 21
-107.5
 31
0.0
  0
LINE
  8
layer2
 10
-10.03940700000001
 20
-85.067357000000001
 30
0.0
 11
-12.319730000000011
 21
-84.76714699999998
 31
0.0
  0
LINE
  8
layer2
 10
-21.057037000000012
 20
-83.029188999999988
 30
0.0
 11
-23.278666000000008
 21
-82.433904999999982
 31
0.0
  0
LINE
  8
layer2
 10
-31.714375000000011
 20
-79.570368000000002
 30
0.0
 11
-33.839297000000009
 21
-78.690196
 31
0.0
  0
LINE
  8
layer2
 10
-41.829070999999999
 20
-74.750076000000007
 30
0.0
 11
-43.820929
 21
-73.600076000000001
 31
0.0
  0
LINE
  8
layer2
 10
-51.228059999999999
 20
-68.650789000000003
 30
0.0
 11
-53.052773000000009
 21
-67.250637999999995
 31
0.0
  0
LINE
  8
layer2
 10
-59.750523000000008
 20
-61.376868999999992
 30
0.0
 11
-61.376869000000013
 21
-59.750523000000001
 31
0.0
  0
LINE
  8
layer2
 10
-67.250637999999995
 20
-53.052773000000002
 30
0.0
 11
-68.650789000000003
 21
-51.228059999999992
 31
0.0
  0
LINE
  8
layer2
 10
-73.600076000000001
 20
-43.820928999999992
 30
0.0
 11
-74.750076000000007
 21
-41.829070999999992
 31
0.0
  0
LINE
  8
layer2
 10
-78.690196
 20
-33.839296999999988
 30
0.0
 11
-79.570368000000002
 21
-31.71437499999999
 31
0.0
  0
LINE
  8
layer2
 10
-82.433904999999982
 20
-23.278665999999991
 30
0.0
 11
-83.029188999999988
 21
-21.05703699999999
 31
0.0
  0
LINE
  8
layer2
 10
-84.76714699999998
 20
-12.319729999999989
 30
0.0
 11
-85.067357000000001
 21
-10.03940699999999
 31
0.0
  0
LINE
  8
layer2
 10
-85.650000000000006
 20
-1.149999999999989
 30
0.0
 11
-85.650000000000006
 21
0
 31
0.0
  0
LINE
  8
layer2
 10
78.962659000000002
 20
-31.46265300000001
 30
0.0
 11
79.570368000000002
 21
-31.714375000000011
 31
0.0
  0
LINE
  8
layer2
 10
85.650000000000006
 20
-1.1500000000000099
 30
0.0
 11
84.992220000000003
 21
-1.1499950000000101
 31
0.0
  0
LINE
  8
layer2
 10
77.583427999999998
 20
-41.60007199999999
 30
0.0
 11
85.776979693876598
 21
-45.640685095609349
 31
0.0
  0
LINE
  8
layer2
 10
82.349590000000006
 20
-31.117508000000011
 30
0.0
 11
91.00045079058539
 21
-34.054079598640506
 31
0.0
  0
LINE
  8
layer2
 10
82.433904999999982
 20
-23.278666000000008
 30
0.0
 11
81.798540000000003
 21
-23.108416000000009
 31
0.0
  0
LINE
  8
layer2
 10
86.967229999999986
 20
-63.250160000000008
 30
0.0
 11
83.603737999999964
 21
-67.633546999999993
 31
0.0
  0
LINE
  8
layer2
 10
84.415205000000014
 20
-9.9535490000000131
 30
0.0
 11
85.067357000000001
 21
-10.03940700000001
 31
0.0
  0
LINE
  8
layer2
 10
67.633546999999979
 20
-83.603738000000035
 30
0.0
 11
63.250160000000001
 21
-86.967230000000015
 31
0.0
  0
LINE
  8
layer2
 10
12.233871999999989
 20
-84.114994999999965
 30
0.0
 11
12.319729999999989
 21
-84.76714699999998
 31
0.0
  0
LINE
  8
layer2
 10
16.770500999999982
 20
-106.219735
 30
0.0
 11
11.292630999999989
 21
-106.94091
 31
0.0
  0
LINE
  8
layer2
 10
43.69074999999998
 20
-98.259860000000003
 30
0.0
 11
38.586187999999993
 21
-100.374239
 31
0.0
  0
LINE
  8
layer2
 10
10.03940699999999
 20
-85.067357000000001
 30
0.0
 11
9.953553999999988
 21
-84.415205000000014
 31
0.0
  0
LINE
  8
layer2
 10
56.142454999999991
 20
-91.716446000000005
 30
0.0
 11
51.357544999999988
 21
-94.479015999999987
 31
0.0
  0
LINE
  8
layer2
 10
81.860498999999976
 20
-67.805240999999995
 30
0.0
 11
74.991923861801112
 21
-61.781661817291052
 31
0.0
  0
LINE
  8
layer2
 10
23.667084999999989
 20
-103.62702899999999
 30
0.0
 11
21.884800120622295
 21
-94.666878606409682
 31
0.0
  0
LINE
  8
layer2
 10
59.750523000000001
 20
-61.376869000000013
 30
0.0
 11
59.285406000000002
 21
-60.91174500000001
 31
0.0
  0
LINE
  8
layer2
 10
104.552032
 20
-25.154610000000019
 30
0.0
 11
103.122021
 21
-30.49148400000001
 31
0.0
  0
LINE
  8
layer2
 10
85.706727000000015
 20
-20.102515000000011
 30
0.0
 11
94.666878606409625
 21
-21.884800120622501
 31
0.0
  0
LINE
  8
layer2
 10
23.108419999999992
 20
-81.798539000000005
 30
0.0
 11
23.278665999999991
 21
-82.433904999999982
 31
0.0
  0
LINE
  8
layer2
 10
51.228059999999992
 20
-68.650789000000003
 30
0.0
 11
50.827632999999992
 21
-68.128934999999998
 31
0.0
  0
LINE
  8
layer2
 10
55.758082000000002
 20
-68.123347999999993
 30
0.0
 11
61.781661817291031
 21
-74.991923861801141
 31
0.0
  0
LINE
  8
layer2
 10
94.479015999999987
 20
-51.357545000000009
 30
0.0
 11
91.716446000000005
 21
-56.142455000000012
 31
0.0
  0
LINE
  8
layer2
 10
84.76714699999998
 20
-12.319730000000011
 30
0.0
 11
84.114996000000005
 21
-12.23386800000001
 31
0.0
  0
LINE
  8
layer2
 10
36.990650999999993
 20
-99.651311000000007
 30
0.0
 11
34.054079598640456
 21
-91.00045079058539
 31
0.0
  0
LINE
  8
layer2
 10
73.600076000000001
 20
-43.820929
 30
0.0
 11
73.030423999999982
 21
-43.492035000000001
 31
0.0
  0
LINE
  8
layer2
 10
100.374239
 20
-38.586188000000021
 30
0.0
 11
98.259860000000003
 21
-43.690750000000023
 31
0.0
  0
LINE
  8
layer2
 10
71.489791999999994
 20
-51.370847000000012
 30
0.0
 11
79.085841055691603
 21
-56.446365037211905
 31
0.0
  0
LINE
  8
layer2
 10
68.128936999999993
 20
-50.827629000000009
 30
0.0
 11
68.650789000000003
 21
-51.228059999999999
 31
0.0
  0
LINE
  8
layer2
 10
72.30981199999998
 20
-77.910096999999993
 30
0.0
 11
66.286232691328223
 21
-71.041521218167773
 31
0.0
  0
LINE
  8
layer2
 10
1.149999999999989
 20
-84.992220000000003
 30
0.0
 11
1.149999999999989
 21
-85.650000000000006
 31
0.0
  0
LINE
  8
layer2
 10
31.71437499999999
 20
-79.570368000000002
 30
0.0
 11
31.462656999999989
 21
-78.962656999999979
 31
0.0
  0
LINE
  8
layer2
 10
104.79589300000001
 20
-17.79081200000001
 30
0.0
 11
95.835741999999996
 21
-16.008527000000072
 31
0.0
  0
LINE
  8
layer2
 10
30.491483999999989
 20
-103.122021
 30
0.0
 11
25.154609999999991
 21
-104.552032
 31
0.0
  0
LINE
  8
layer2
 10
43.492038999999991
 20
-73.030422000000002
 30
0.0
 11
43.820928999999992
 21
-73.600076000000001
 31
0.0
  0
LINE
  8
layer2
 10
41.829070999999992
 20
-74.750076000000007
 30
0.0
 11
41.500185000000002
 21
-74.180419999999984
 31
0.0
  0
LINE
  8
layer2
 10
77.967409999999987
 20
-74.060547000000014
 30
0.0
 11
74.060546999999985
 21
-77.967410000000015
 31
0.0
  0
LINE
  8
layer2
 10
82.393821999999986
 20
-20.886791000000009
 30
0.0
 11
83.029188999999988
 21
-21.057037000000012
 31
0.0
  0
LINE
  8
layer2
 10
25.444074999999991
 20
-84.275461000000007
 30
0.0
 11
28.380646596184434
 21
-92.926321783350389
 31
0.0
  0
LINE
  8
layer2
 10
67.250637999999995
 20
-53.052773000000009
 30
0.0
 11
66.728789000000006
 21
-52.652338
 31
0.0
  0
LINE
  8
layer2
 10
46.389183000000003
 20
-74.818432999999999
 30
0.0
 11
51.464701254717248
 21
-82.414482381211371
 31
0.0
  0
LINE
  8
layer2
 10
60.911748000000003
 20
-59.285402000000012
 30
0.0
 11
61.376868999999992
 21
-59.750523000000008
 31
0.0
  0
LINE
  8
layer2
 10
74.180421999999979
 20
-41.500181000000012
 30
0.0
 11
74.750076000000007
 21
-41.829070999999999
 31
0.0
  0
LINE
  8
layer2
 10
87.597398999999967
 20
-8.7435630000000089
 30
0.0
 11
96.713529954029966
 21
-9.3410655297586409
 31
0.0
  0
LINE
  8
layer2
 10
96.620458000000013
 20
-44.307777000000009
 30
0.0
 11
88.426906737201506
 21
-40.267164616974981
 31
0.0
  0
LINE
  8
layer2
 10
2.7649939999999891
 20
-87.989255000000014
 30
0.0
 11
3.3624970344201741
 21
-97.105386025152129
 31
0.0
  0
LINE
  8
layer2
 10
33.587575999999991
 20
-78.082487
 30
0.0
 11
33.839296999999988
 21
-78.690196
 31
0.0
  0
LINE
  8
layer2
 10
52.65234199999999
 20
-66.728785999999999
 30
0.0
 11
53.052773000000002
 21
-67.250637999999995
 31
0.0
  0
LINE
  8
layer2
 10
21.05703699999999
 20
-83.029188999999988
 30
0.0
 11
20.886794999999989
 21
-82.393821000000003
 31
0.0
  0
LINE
  8
layer2
 10
64.172944999999984
 20
-60.262653000000007
 30
0.0
 11
71.041521218167929
 21
-66.286232691328081
 31
0.0
  0
LINE
  8
layer2
 10
78.690196
 20
-33.839297000000009
 30
0.0
 11
78.082488999999981
 21
-33.587572000000009
 31
0.0
  0
LINE
  8
layer2
 10
61.521883000000003
 20
-86.681890000000024
 30
0.0
 11
56.446365037211727
 21
-79.085841055691731
 31
0.0
  0
LINE
  8
layer2
 10
36.226551999999991
 20
-80.233354999999989
 30
0.0
 11
40.267164616974789
 21
-88.426906737201591
 31
0.0
  0
LINE
  8
layer2
 10
106.94091
 20
-11.292631000000011
 30
0.0
 11
106.219735
 21
-16.77050100000001
 31
0.0
  0
LINE
  8
layer2
 10
90.010531
 20
-56.540219000000022
 30
0.0
 11
82.414482381211343
 21
-51.464701254717284
 31
0.0
  0
LINE
  8
layer2
 10
14.22624199999999
 20
-86.875590999999986
 30
0.0
 11
16.008527000000033
 21
-95.83574200000001
 31
0.0
  0
LINE
  8
layer2
 10
106.22151599999999
 20
-3.960000000000012
 30
0.0
 11
97.105386025152129
 21
-3.3624970344202145
 31
0.0
  0
LINE
  8
layer2
 10
2.7625689999999858
 20
-107.5
 30
0.0
 11
-1.9700000000000001e-014
 21
-107.5
 31
0.0
  0
LINE
  8
layer2
 10
49.681297999999977
 20
-93.970530999999994
 30
0.0
 11
45.640685095609236
 21
-85.776979693876655
 31
0.0
  0
LINE
  8
layer2
 10
101.57718199999999
 20
-31.317218000000011
 30
0.0
 11
92.926321783350346
 21
-28.380646596184555
 31
0.0
  0
LINE
  8
layer2
 10
9.9385679999999876
 20
-105.82966
 30
0.0
 11
9.3410655297585148
 21
-96.713529954029966
 31
0.0
  0
LINE
  8
layer2
 10
107.5
 20
0
 30
0.0
 11
107.5
 21
-2.7625690000000129
 31
0.0
  0
LINE
  8
layer2
 10
10.03940699999999
 20
-85.067357000000001
 30
0.0
 11
12.319729999999989
 21
-84.76714699999998
 31
0.0
  0
LINE
  8
layer2
 10
21.05703699999999
 20
-83.029188999999988
 30
0.0
 11
23.278665999999991
 21
-82.433904999999982
 31
0.0
  0
LINE
  8
layer2
 10
31.71437499999999
 20
-79.570368000000002
 30
0.0
 11
33.839296999999988
 21
-78.690196
 31
0.0
  0
LINE
  8
layer2
 10
41.829070999999992
 20
-74.750076000000007
 30
0.0
 11
43.820928999999992
 21
-73.600076000000001
 31
0.0
  0
LINE
  8
layer2
 10
51.228059999999992
 20
-68.650789000000003
 30
0.0
 11
53.052773000000002
 21
-67.250637999999995
 31
0.0
  0
LINE
  8
layer2
 10
59.750523000000001
 20
-61.376869000000013
 30
0.0
 11
61.376868999999992
 21
-59.750523000000008
 31
0.0
  0
LINE
  8
layer2
 10
67.250637999999995
 20
-53.052773000000009
 30
0.0
 11
68.650789000000003
 21
-51.228059999999999
 31
0.0
  0
LINE
  8
layer2
 10
73.600076000000001
 20
-43.820929
 30
0.0
 11
74.750076000000007
 21
-41.829070999999999
 31
0.0
  0
LINE
  8
layer2
 10
78.690196
 20
-33.839297000000009
 30
0.0
 11
79.570368000000002
 21
-31.714375000000011
 31
0.0
  0
LINE
  8
layer2
 10
82.433904999999982
 20
-23.278666000000008
 30
0.0
 11
83.029188999999988
 21
-21.057037000000012
 31
0.0
  0
LINE
  8
layer2
 10
84.76714699999998
 20
-12.319730000000011
 30
0.0
 11
85.067357000000001
 21
-10.03940700000001
 31
0.0
  0
LINE
  8
layer2
 10
85.650000000000006
 20
-1.1500000000000099
 30
0.0
 11
85.650000000000006
 21
0
 31
0.0
  0
LINE
  8
layer2
 10
1.149999999999989
 20
-85.650000000000006
 30
0.0
 11
-1.1500000000000099
 21
-85.650000000000006
 31
0.0
  0
LINE
  8
layer2
 10
-92.926321783350332
 20
28.380646596184587
 30
0.0
 11
-84.275461000000007
 21
25.444075000000002
 31
0.0
  0
LINE
  8
layer2
 10
-94.666878606409668
 20
21.88480012062233
 30
0.0
 11
-103.62702899999999
 21
23.667085
 31
0.0
  0
LINE
  8
layer2
 10
-88.426906737201577
 20
40.267164616974817
 30
0.0
 11
-80.233354999999989
 21
36.226551999999998
 31
0.0
  0
LINE
  8
layer2
 10
-91.00045079058539
 20
34.054079598640492
 30
0.0
 11
-99.651311000000007
 21
36.990651
 31
0.0
  0
LINE
  8
layer2
 10
-82.414482381211315
 20
51.464701254717347
 30
0.0
 11
-74.818432999999999
 21
46.389183000000003
 31
0.0
  0
LINE
  8
layer2
 10
-85.776979693876484
 20
45.640685095609562
 30
0.0
 11
-93.970530999999994
 21
49.681297999999991
 31
0.0
  0
LINE
  8
layer2
 10
-74.991923861801055
 20
61.781661817291116
 30
0.0
 11
-68.123347999999993
 21
55.758082000000002
 31
0.0
  0
LINE
  8
layer2
 10
-79.08584105569156
 20
56.446365037211969
 30
0.0
 11
-86.681889999999981
 21
61.521883000000003
 31
0.0
  0
LINE
  8
layer2
 10
-66.286232691328081
 20
71.041521218167915
 30
0.0
 11
-60.262653
 21
64.172944999999999
 31
0.0
  0
LINE
  8
layer2
 10
-71.041521218167816
 20
66.286232691328181
 30
0.0
 11
-77.910096999999979
 21
72.30981199999998
 31
0.0
  0
LINE
  8
layer2
 10
-56.446365037212054
 20
79.085841055691489
 30
0.0
 11
-51.370846999999991
 21
71.489791999999994
 31
0.0
  0
LINE
  8
layer2
 10
-61.781661817290967
 20
74.991923861801197
 30
0.0
 11
-67.805240999999995
 21
81.860499000000004
 31
0.0
  0
LINE
  8
layer2
 10
-45.640685095609399
 20
85.776979693876569
 30
0.0
 11
-41.60007199999999
 21
77.583427999999998
 31
0.0
  0
LINE
  8
layer2
 10
-51.464701254717184
 20
82.414482381211414
 30
0.0
 11
-56.540219
 21
90.010531
 31
0.0
  0
LINE
  8
layer2
 10
-34.054079598640456
 20
91.000450790585404
 30
0.0
 11
-31.117508000000001
 21
82.349590000000006
 31
0.0
  0
LINE
  8
layer2
 10
-40.267164616974817
 20
88.426906737201577
 30
0.0
 11
-44.307777000000002
 21
96.620458000000013
 31
0.0
  0
LINE
  8
layer2
 10
-21.884800120622472
 20
94.666878606409639
 30
0.0
 11
-20.102515
 21
85.706727000000015
 31
0.0
  0
LINE
  8
layer2
 10
-28.380646596184569
 20
92.926321783350346
 30
0.0
 11
-31.317218
 21
101.57718199999999
 31
0.0
  0
LINE
  8
layer2
 10
-9.3410655297586551
 20
96.713529954029966
 30
0.0
 11
-8.7435629999999982
 21
87.597398999999967
 31
0.0
  0
LINE
  8
layer2
 10
-16.008527000000022
 20
95.83574200000001
 30
0.0
 11
-17.790811999999999
 21
104.79589300000001
 31
0.0
  0
LINE
  8
layer2
 10
3.3624970344202842
 20
97.105386025152129
 30
0.0
 11
2.7649940000000002
 21
87.989255000000014
 31
0.0
  0
LINE
  8
layer2
 10
-3.3624970344202727
 20
97.105386025152129
 30
0.0
 11
-3.9599999999999991
 21
106.22151599999999
 31
0.0
  0
LINE
  8
layer2
 10
16.008527000000015
 20
95.83574200000001
 30
0.0
 11
14.226241999999999
 21
86.875590999999986
 31
0.0
  0
LINE
  8
layer2
 10
9.3410655297586871
 20
96.713529954029951
 30
0.0
 11
9.9385680000000001
 21
105.82966
 31
0.0
  0
LINE
  8
layer2
 10
28.380646596184622
 20
92.926321783350318
 30
0.0
 11
25.444075000000002
 21
84.275461000000007
 31
0.0
  0
LINE
  8
layer2
 10
21.884800120622465
 20
94.666878606409639
 30
0.0
 11
23.667085
 21
103.62702899999999
 31
0.0
  0
LINE
  8
layer2
 10
40.267164616974846
 20
88.426906737201563
 30
0.0
 11
36.226551999999998
 21
80.233354999999989
 31
0.0
  0
LINE
  8
layer2
 10
34.054079598640442
 20
91.000450790585404
 30
0.0
 11
36.990651
 21
99.651311000000007
 31
0.0
  0
LINE
  8
layer2
 10
51.464701254717234
 20
82.414482381211371
 30
0.0
 11
46.389183000000003
 21
74.818432999999999
 31
0.0
  0
LINE
  8
layer2
 10
45.640685095609406
 20
85.776979693876569
 30
0.0
 11
49.681297999999991
 21
93.970530999999994
 31
0.0
  0
LINE
  8
layer2
 10
71.041521218167929
 20
66.286232691328081
 30
0.0
 11
64.172944999999999
 21
60.262653
 31
0.0
  0
LINE
  8
layer2
 10
66.286232691328138
 20
71.041521218167858
 30
0.0
 11
72.30981199999998
 21
77.910096999999979
 31
0.0
  0
LINE
  8
layer2
 10
61.781661817291052
 20
74.991923861801112
 30
0.0
 11
55.758082000000002
 21
68.123347999999993
 31
0.0
  0
LINE
  8
layer2
 10
56.446365037211969
 20
79.085841055691574
 30
0.0
 11
61.521883000000003
 21
86.681889999999981
 31
0.0
  0
LINE
  8
layer2
 10
79.085841055691574
 20
56.446365037211969
 30
0.0
 11
71.489791999999994
 21
51.370846999999991
 31
0.0
  0
LINE
  8
layer2
 10
74.991923861801169
 20
61.781661817290988
 30
0.0
 11
81.860499000000004
 21
67.805240999999995
 31
0.0
  0
LINE
  8
layer2
 10
85.776979693876555
 20
45.640685095609427
 30
0.0
 11
77.583427999999998
 21
41.60007199999999
 31
0.0
  0
LINE
  8
layer2
 10
82.414482381211386
 20
51.464701254717227
 30
0.0
 11
90.010531
 21
56.540219
 31
0.0
  0
LINE
  8
layer2
 10
91.000450790585404
 20
34.054079598640435
 30
0.0
 11
82.349590000000006
 21
31.117508000000001
 31
0.0
  0
LINE
  8
layer2
 10
88.426906737201563
 20
40.267164616974846
 30
0.0
 11
96.620458000000013
 21
44.307777000000002
 31
0.0
  0
LINE
  8
layer2
 10
94.666878606409639
 20
21.884800120622458
 30
0.0
 11
85.706727000000015
 21
20.102515
 31
0.0
  0
LINE
  8
layer2
 10
92.926321783350332
 20
28.380646596184594
 30
0.0
 11
101.57718199999999
 21
31.317218
 31
0.0
  0
LINE
  8
layer2
 10
96.713529954029966
 20
9.3410655297586818
 30
0.0
 11
87.597398999999967
 21
8.7435629999999982
 31
0.0
  0
LINE
  8
layer2
 10
95.83574200000001
 20
16.008527000000015
 30
0.0
 11
104.79589300000001
 21
17.790811999999999
 31
0.0
  0
LINE
  8
layer2
 10
97.105386025152129
 20
-3.3624970344202145
 30
0.0
 11
87.989255000000014
 21
-2.7649940000000099
 31
0.0
  0
LINE
  8
layer2
 10
97.105386025152129
 20
3.3624970344201701
 30
0.0
 11
106.22151599999999
 21
3.9599999999999991
 31
0.0
  0
LINE
  8
layer2
 10
95.835741999999996
 20
-16.008527000000072
 30
0.0
 11
86.875590999999986
 21
-14.22624200000001
 31
0.0
  0
LINE
  8
layer2
 10
96.713529954029966
 20
-9.3410655297586409
 30
0.0
 11
105.82966
 21
-9.9385680000000125
 31
0.0
  0
LINE
  8
layer2
 10
92.926321783350346
 20
-28.380646596184555
 30
0.0
 11
84.275461000000007
 21
-25.444075000000009
 31
0.0
  0
LINE
  8
layer2
 10
94.666878606409625
 20
-21.884800120622501
 30
0.0
 11
103.62702899999999
 21
-23.667085000000011
 31
0.0
  0
LINE
  8
layer2
 10
88.426906737201506
 20
-40.267164616974981
 30
0.0
 11
80.233354999999989
 21
-36.226552000000012
 31
0.0
  0
LINE
  8
layer2
 10
91.00045079058539
 20
-34.054079598640506
 30
0.0
 11
99.651311000000007
 21
-36.990651000000021
 31
0.0
  0
LINE
  8
layer2
 10
82.414482381211343
 20
-51.464701254717284
 30
0.0
 11
74.818432999999999
 21
-46.38918300000001
 31
0.0
  0
LINE
  8
layer2
 10
85.776979693876598
 20
-45.640685095609349
 30
0.0
 11
93.970530999999994
 21
-49.681298000000012
 31
0.0
  0
LINE
  8
layer2
 10
74.991923861801112
 20
-61.781661817291052
 30
0.0
 11
68.123347999999993
 21
-55.758082000000002
 31
0.0
  0
LINE
  8
layer2
 10
79.085841055691603
 20
-56.446365037211905
 30
0.0
 11
86.681889999999981
 21
-61.52188300000001
 31
0.0
  0
LINE
  8
layer2
 10
66.286232691328223
 20
-71.041521218167773
 30
0.0
 11
60.262652999999993
 21
-64.172945000000013
 31
0.0
  0
LINE
  8
layer2
 10
71.041521218167929
 20
-66.286232691328081
 30
0.0
 11
77.910096999999979
 21
-72.309811999999994
 31
0.0
  0
LINE
  8
layer2
 10
56.446365037211727
 20
-79.085841055691731
 30
0.0
 11
51.370846999999991
 21
-71.489791999999994
 31
0.0
  0
LINE
  8
layer2
 10
61.781661817291031
 20
-74.991923861801141
 30
0.0
 11
67.805240999999981
 21
-81.860499000000033
 31
0.0
  0
LINE
  8
layer2
 10
45.640685095609236
 20
-85.776979693876655
 30
0.0
 11
41.60007199999999
 21
-77.583427999999998
 31
0.0
  0
LINE
  8
layer2
 10
51.464701254717248
 20
-82.414482381211371
 30
0.0
 11
56.540219
 21
-90.010531
 31
0.0
  0
LINE
  8
layer2
 10
34.054079598640456
 20
-91.00045079058539
 30
0.0
 11
31.11750799999999
 21
-82.349590000000006
 31
0.0
  0
LINE
  8
layer2
 10
40.267164616974789
 20
-88.426906737201591
 30
0.0
 11
44.307776999999987
 21
-96.620458000000013
 31
0.0
  0
LINE
  8
layer2
 10
21.884800120622295
 20
-94.666878606409682
 30
0.0
 11
20.10251499999999
 21
-85.706727000000015
 31
0.0
  0
LINE
  8
layer2
 10
28.380646596184434
 20
-92.926321783350389
 30
0.0
 11
31.31721799999999
 21
-101.57718199999999
 31
0.0
  0
LINE
  8
layer2
 10
9.3410655297585148
 20
-96.713529954029966
 30
0.0
 11
8.7435629999999893
 21
-87.597398999999967
 31
0.0
  0
LINE
  8
layer2
 10
16.008527000000033
 20
-95.83574200000001
 30
0.0
 11
17.790811999999981
 21
-104.79589300000001
 31
0.0
  0
LINE
  8
layer2
 10
-3.3624970344203824
 20
-97.105386025152129
 30
0.0
 11
-2.7649940000000099
 21
-87.989255000000014
 31
0.0
  0
LINE
  8
layer2
 10
3.3624970344201741
 20
-97.105386025152129
 30
0.0
 11
3.9599999999999862
 21
-106.22151599999999
 31
0.0
  0
LINE
  8
layer2
 10
-16.008527000000154
 20
-95.835741999999982
 30
0.0
 11
-14.22624200000001
 21
-86.875590999999986
 31
0.0
  0
LINE
  8
layer2
 10
-9.3410655297587208
 20
-96.713529954029951
 30
0.0
 11
-9.9385680000000125
 21
-105.82966
 31
0.0
  0
LINE
  8
layer2
 10
-28.380646596184551
 20
-92.926321783350346
 30
0.0
 11
-25.444075000000009
 21
-84.275461000000007
 31
0.0
  0
LINE
  8
layer2
 10
-21.88480012062233
 20
-94.666878606409668
 30
0.0
 11
-23.667085000000011
 21
-103.62702899999999
 31
0.0
  0
LINE
  8
layer2
 10
-40.267164616974981
 20
-88.426906737201506
 30
0.0
 11
-36.226552000000012
 21
-80.233354999999989
 31
0.0
  0
LINE
  8
layer2
 10
-34.054079598640499
 20
-91.00045079058539
 30
0.0
 11
-36.990651000000021
 21
-99.651311000000007
 31
0.0
  0
LINE
  8
layer2
 10
-51.464701254717355
 20
-82.4144823812113
 30
0.0
 11
-46.38918300000001
 21
-74.818432999999999
 31
0.0
  0
LINE
  8
layer2
 10
-45.640685095609342
 20
-85.776979693876598
 30
0.0
 11
-49.681298000000012
 21
-93.970530999999994
 31
0.0
  0
LINE
  8
layer2
 10
-61.78166181729118
 20
-74.991923861801013
 30
0.0
 11
-55.758082000000002
 21
-68.123347999999993
 31
0.0
  0
LINE
  8
layer2
 10
-56.446365037211969
 20
-79.08584105569156
 30
0.0
 11
-61.52188300000001
 21
-86.681889999999981
 31
0.0
  0
LINE
  8
layer2
 10
-71.041521218167958
 20
-66.286232691328038
 30
0.0
 11
-64.172945000000013
 21
-60.262652999999993
 31
0.0
  0
LINE
  8
layer2
 10
-66.286232691328067
 20
-71.041521218167929
 30
0.0
 11
-72.309811999999994
 21
-77.910096999999979
 31
0.0
  0
LINE
  8
layer2
 10
-79.085841055691603
 20
-56.446365037211912
 30
0.0
 11
-71.489791999999994
 21
-51.370846999999991
 31
0.0
  0
LINE
  8
layer2
 10
-74.991923861801055
 20
-61.78166181729113
 30
0.0
 11
-81.860499000000033
 21
-67.805240999999981
 31
0.0
  0
LINE
  8
layer2
 10
-85.776979693876655
 20
-45.640685095609243
 30
0.0
 11
-77.583427999999998
 21
-41.60007199999999
 31
0.0
  0
LINE
  8
layer2
 10
-82.414482381211343
 20
-51.464701254717291
 30
0.0
 11
-90.010531
 21
-56.540219
 31
0.0
  0
LINE
  8
layer2
 10
-91.00045079058539
 20
-34.054079598640463
 30
0.0
 11
-82.349590000000006
 21
-31.11750799999999
 31
0.0
  0
LINE
  8
layer2
 10
-88.426906737201591
 20
-40.267164616974796
 30
0.0
 11
-96.620458000000013
 21
-44.307776999999987
 31
0.0
  0
LINE
  8
layer2
 10
-94.666878606409668
 20
-21.884800120622298
 30
0.0
 11
-85.706727000000015
 21
-20.10251499999999
 31
0.0
  0
LINE
  8
layer2
 10
-92.926321783350403
 20
-28.380646596184356
 30
0.0
 11
-101.57718199999999
 21
-31.31721799999999
 31
0.0
  0
LINE
  8
layer2
 10
-96.713529954029966
 20
-9.3410655297585183
 30
0.0
 11
-87.597398999999967
 21
-8.7435629999999893
 31
0.0
  0
LINE
  8
layer2
 10
-95.835742000000025
 20
-16.008526999999908
 30
0.0
 11
-104.79589300000001
 21
-17.790811999999981
 31
0.0
  0
LINE
  8
layer2
 10
-97.105386025152129
 20
3.3624970344203353
 30
0.0
 11
-87.989255000000014
 21
2.7649940000000002
 31
0.0
  0
LINE
  8
layer2
 10
-97.105386025152129
 20
-3.3624970344202216
 30
0.0
 11
-106.22151599999999
 21
-3.9599999999999862
 31
0.0
  0
LINE
  8
layer2
 10
-95.83574200000001
 20
16.008527000000022
 30
0.0
 11
-86.875590999999986
 21
14.226241999999999
 31
0.0
  0
LINE
  8
layer2
 10
-96.713529954029951
 20
9.3410655297587173
 30
0.0
 11
-105.82966
 21
9.9385680000000001
 31
0.0
  0
ARC
  8
layer2
 10
38.126967480509641
 20
99.265583261433491
 30
0
 40
1.2000004300738629
 50
67.499987799801275
 51
161.24998779980132
  0
ARC
  8
layer2
 10
11.509466507851645
 20
87.415990945858979
 30
0
 40
2.770000212314494
 50
287.00851806424157
 51
348.75000606424157
  0
ARC
  8
layer2
 10
-7.2078140789244571e-006
 20
5.8826531446065644e-006
 30
0
 40
85.000006895379855
 50
0.77519781554626144
 51
6.7247968155462594
  0
ARC
  8
layer2
 10
-4.5704729387807674e-006
 20
-6.6049069857854192e-007
 30
0
 40
85.000003991974992
 50
38.275200473025087
 51
44.224799473025087
  0
ARC
  8
layer2
 10
44.084409864271223
 20
76.358288602434072
 30
0
 40
2.7700002107075679
 50
153.75000847636875
 51
215.49149647636881
  0
ARC
  8
layer2
 10
53.67401840604807
 20
69.950862306637802
 30
0
 40
2.7700005643951306
 50
146.25000412118899
 51
207.99149212118897
  0
ARC
  8
layer2
 10
44.086012421941774
 20
76.357362768366627
 30
0
 40
2.7699999176169725
 50
264.5085053162727
 51
326.24999331627248
  0
ARC
  8
layer2
 10
87.41623232706938
 20
11.50763244472888
 30
0
 40
2.7700002271957618
 50
212.00851179486352
 51
273.74999979486336
  0
ARC
  8
layer2
 10
86.015205972889049
 20
62.519646537014239
 30
0
 40
1.1999998615833329
 50
303.74998991559619
 51
37.499989915596529
  0
ARC
  8
layer2
 10
-6.0607986185345908e-006
 20
-7.8924749544739825e-006
 30
0
 40
85.000009517856
 50
53.275201619109417
 51
59.224800619109381
  0
ARC
  8
layer2
 10
16.613869719484086
 20
105.03000123228071
 30
0
 40
1.1999999150364937
 50
348.75000669683197
 51
82.500006696832017
  0
ARC
  8
layer2
 10
85.165848475570357
 20
22.821078274129743
 30
0
 40
2.7700003033535259
 50
108.75000129250519
 51
170.49148929250509
  0
ARC
  8
layer2
 10
33.742213921021317
 20
81.458494751366686
 30
0
 40
2.7700005597548825
 50
272.00851587715994
 51
333.75000387716005
  0
ARC
  8
layer2
 10
-4.6604908945369061e-006
 20
-1.5704729463550393e-006
 30
0
 40
85.000003991975134
 50
45.775200526974821
 51
51.724799526974813
  0
ARC
  8
layer2
 10
106.29999974074093
 20
2.7625690313587388
 30
0
 40
1.2000002592590706
 50
359.99999850273082
 51
93.74999850273116
  0
ARC
  8
layer2
 10
88.170421449805005
 20
0.00092533406744488289
 30
0
 40
2.7699994354737902
 50
93.749996243100341
 51
155.4914842431003
  0
ARC
  8
layer2
 10
69.950862306637802
 20
53.674018406048063
 30
0
 40
2.7700005643951293
 50
242.00850787881097
 51
303.74999587881109
  0
ARC
  8
layer2
 10
99.265583261433491
 20
38.126967480509641
 30
0
 40
1.2000004300738625
 50
288.75001220019868
 51
22.500012200198736
  0
ARC
  8
layer2
 10
62.519646537014239
 20
86.015205972889049
 30
0
 40
1.1999998615833329
 50
52.500010084403471
 51
146.25001008440384
  0
ARC
  8
layer2
 10
22.821078274129743
 20
85.165848475570357
 30
0
 40
2.770000303353525
 50
279.50851070749491
 51
341.2499987074948
  0
ARC
  8
layer2
 10
55.542455122176605
 20
90.677215179670114
 30
0
 40
1.2000002297131476
 50
326.25001306832144
 51
60.000013068321316
  0
ARC
  8
layer2
 10
-6.0098213623405172e-006
 20
-1.1470156948689691e-006
 30
0
 40
85.00000619550292
 50
23.275200870885236
 51
29.224799870885249
  0
ARC
  8
layer2
 10
-1.6101858051342788e-006
 20
-4.8217581714027347e-006
 30
0
 40
85.000003198229734
 50
15.775204625173192
 51
21.724803625173195
  0
ARC
  8
layer2
 10
66.903033251771063
 20
82.651714010250515
 30
0
 40
1.2000000055875117
 50
318.74999819348227
 51
52.499998193482824
  0
ARC
  8
layer2
 10
97.15120457470465
 20
43.231529733506704
 30
0
 40
1.2000000438312497
 50
22.500006764021084
 51
116.25000676402104
  0
ARC
  8
layer2
 10
103.3929209002783
 20
24.844027426099643
 30
0
 40
1.2000000319619233
 50
281.2499857394622
 51
14.999985739462193
  0
ARC
  8
layer2
 10
50.757545586865419
 20
93.439785179329945
 30
0
 40
1.1999999976634874
 50
60.000032291171728
 51
153.75003229117124
  0
ARC
  8
layer2
 10
81.458494751366686
 20
33.742213921021317
 30
0
 40
2.7700005597548807
 50
116.24999612283997
 51
177.99148412284006
  0
ARC
  8
layer2
 10
105.03000123228071
 20
16.613869719484086
 30
0
 40
1.1999999150364942
 50
7.499993303167984
 51
101.24999330316803
  0
ARC
  8
layer2
 10
69.949735170901548
 20
53.675485848245067
 30
0
 40
2.7699994276783224
 50
131.24999010767635
 51
192.99147810767636
  0
ARC
  8
layer2
 10
87.415990945858979
 20
11.509466507851645
 30
0
 40
2.7700002123144922
 50
101.24999393575841
 51
162.99148193575843
  0
ARC
  8
layer2
 10
0.00092533406744021995
 20
88.170421449805005
 30
0
 40
2.7699994354737956
 50
294.50851575689978
 51
356.25000375689967
  0
ARC
  8
layer2
 10
-9.9822487982237362e-006
 20
-5.6612494336860664e-006
 30
0
 40
85.000010739964935
 50
8.2752043301032092
 51
14.224803330103201
  0
ARC
  8
layer2
 10
-5.1470158624056239e-006
 20
-4.0098218363482374e-006
 30
0
 40
85.000006195503389
 50
60.775200129114822
 51
66.724799129114771
  0
ARC
  8
layer2
 10
11.507632444728877
 20
87.416232327069366
 30
0
 40
2.7700002271957582
 50
176.25000020513633
 51
237.99148820513636
  0
ARC
  8
layer2
 10
62.345248418549509
 20
62.346557355658518
 30
0
 40
2.7699991885859152
 50
138.74999253010739
 51
200.49148053010725
  0
ARC
  8
layer2
 10
7.9977901279448815e-007
 20
-1.10185695234577e-007
 30
0
 40
85.000000101314484
 50
68.275202524495455
 51
74.224801524495476
  0
ARC
  8
layer2
 10
85.166327865495333
 20
22.81929028350384
 30
0
 40
2.7699998493918345
 50
219.50849031779947
 51
281.24997831779928
  0
ARC
  8
layer2
 10
8.8265313813451485e-007
 20
-7.2078141499787307e-006
 30
0
 40
85.000006895379926
 50
83.275203184453744
 51
89.224802184453736
  0
ARC
  8
layer2
 10
-9.6612499511650185e-006
 20
-8.9822486160073822e-006
 30
0
 40
85.00001073996485
 50
75.775196669896431
 51
81.724795669896437
  0
ARC
  8
layer2
 10
24.844027426099643
 20
103.3929209002783
 30
0
 40
1.2000000319619242
 50
75.000014260537824
 51
168.75001426053777
  0
ARC
  8
layer2
 10
43.231529733506704
 20
97.15120457470465
 30
0
 40
1.2000000438312495
 50
333.74999323597899
 51
67.499993235978906
  0
ARC
  8
layer2
 10
76.358288602434072
 20
44.08440986427123
 30
0
 40
2.7700002107075683
 50
234.50850352363125
 51
296.24999152363119
  0
ARC
  8
layer2
 10
73.212019241173323
 20
77.118882366695487
 30
0
 40
1.1999993758251626
 50
44.99999576213586
 51
138.74999576213571
  0
ARC
  8
layer2
 10
93.439785179329945
 20
50.757545586865419
 30
0
 40
1.1999999976634865
 50
296.24996770882876
 51
29.999967708828287
  0
ARC
  8
layer2
 10
30.180901190803873
 20
101.96290935619294
 30
0
 40
1.2000006184070364
 50
341.25001013243866
 51
75.000010132438689
  0
ARC
  8
layer2
 10
77.118882366695487
 20
73.212019241173323
 30
0
 40
1.1999993758251615
 50
311.25000423786429
 51
45.00000423786414
  0
ARC
  8
layer2
 10
11.135999101815594
 20
105.75117580221982
 30
0
 40
1.2000004220401366
 50
82.499980137855388
 51
176.24998013785483
  0
ARC
  8
layer2
 10
90.677215179670114
 20
55.542455122176605
 30
0
 40
1.2000002297131476
 50
29.999986931678691
 51
123.74998693167859
  0
ARC
  8
layer2
 10
76.357362768366627
 20
44.086012421941774
 30
0
 40
2.7699999176169676
 50
123.75000668372753
 51
185.4914946837273
  0
ARC
  8
layer2
 10
82.651714010250515
 20
66.903033251771063
 30
0
 40
1.2000000055875115
 50
37.500001806517176
 51
131.2500018065177
  0
ARC
  8
layer2
 10
2.7625690313587388
 20
106.29999974074093
 30
0
 40
1.2000002592590706
 50
356.25000149726884
 51
90.000001497269167
  0
ARC
  8
layer2
 10
53.675485848245067
 20
69.949735170901548
 30
0
 40
2.7699994276783255
 50
257.00852189232364
 51
318.75000989232365
  0
ARC
  8
layer2
 10
22.81929028350384
 20
85.166327865495333
 30
0
 40
2.7699998493918345
 50
168.7500216822007
 51
230.4915096822005
  0
ARC
  8
layer2
 10
81.459203351569272
 20
33.740505097613948
 30
0
 40
2.7700003894936378
 50
227.0084946199475
 51
288.74998261994733
  0
ARC
  8
layer2
 10
62.346557355658518
 20
62.345248418549502
 30
0
 40
2.7699991885859112
 50
249.50851946989269
 51
311.25000746989269
  0
ARC
  8
layer2
 10
-9.8924744094119887e-006
 20
-2.0607984438925087e-006
 30
0
 40
85.000009517855474
 50
30.775199380890694
 51
36.724798380890704
  0
ARC
  8
layer2
 10
101.96290935619294
 20
30.180901190803873
 30
0
 40
1.2000006184070375
 50
14.999989867561322
 51
108.74998986756135
  0
ARC
  8
layer2
 10
105.75117580221982
 20
11.135999101815592
 30
0
 40
1.2000004220401359
 50
273.75001986214522
 51
7.5000198621446872
  0
ARC
  8
layer2
 10
33.740505097613941
 20
81.459203351569272
 30
0
 40
2.770000389493632
 50
161.25001738005261
 51
222.99150538005256
  0
ARC
  8
layer2
 10
-73.212019241173323
 20
77.118882366695487
 30
0
 40
1.1999993758251621
 50
41.250004237864303
 51
135.00000423786415
  0
ARC
  8
layer2
 10
-99.265583261433491
 20
38.126967480509641
 30
0
 40
1.200000430073862
 50
157.49998779980126
 51
251.24998779980132
  0
ARC
  8
layer2
 10
-76.358288602434072
 20
44.084409864271223
 30
0
 40
2.7700002107075665
 50
243.75000847636875
 51
305.49149647636881
  0
ARC
  8
layer2
 10
-24.844027426099643
 20
103.3929209002783
 30
0
 40
1.2000000319619233
 50
11.249985739462225
 51
104.99998573946219
  0
ARC
  8
layer2
 10
6.6049089753050794e-007
 20
-4.5704731661544429e-006
 30
0
 40
85.000003991975291
 50
128.27520047302511
 51
134.22479947302509
  0
ARC
  8
layer2
 10
-81.459203351569272
 20
33.740505097613941
 30
0
 40
2.770000389493632
 50
251.25001738005258
 51
312.99150538005256
  0
ARC
  8
layer2
 10
-43.231529733506704
 20
97.15120457470465
 30
0
 40
1.2000000438312493
 50
112.50000676402109
 51
206.25000676402101
  0
ARC
  8
layer2
 10
-2.7625690313587388
 20
106.29999974074093
 30
0
 40
1.2000002592590708
 50
89.999998502730847
 51
183.74999850273113
  0
ARC
  8
layer2
 10
-62.346557355658518
 20
62.345248418549502
 30
0
 40
2.7699991885859112
 50
228.74999253010731
 51
290.49148053010731
  0
ARC
  8
layer2
 10
-85.166327865495333
 20
22.819290283503843
 30
0
 40
2.7699998493918359
 50
258.75002168220067
 51
320.49150968220044
  0
ARC
  8
layer2
 10
-33.74221392102131
 20
81.458494751366686
 30
0
 40
2.7700005597548842
 50
206.24999612283989
 51
267.99148412283989
  0
ARC
  8
layer2
 10
-93.439785179329945
 20
50.757545586865419
 30
0
 40
1.1999999976634874
 50
150.00003229117172
 51
243.75003229117124
  0
ARC
  8
layer2
 10
-5.8826531383893155e-006
 20
-7.2078141641895854e-006
 30
0
 40
85.00000689537994
 50
90.775197815546264
 51
96.724796815546256
  0
ARC
  8
layer2
 10
-66.903033251771063
 20
82.651714010250515
 30
0
 40
1.2000000055875111
 50
127.50000180651718
 51
221.25000180651767
  0
ARC
  8
layer2
 10
4.0098212963357582e-006
 20
-5.1470155995048117e-006
 30
0
 40
85.000006195502792
 50
150.77520012911481
 51
156.72479912911481
  0
ARC
  8
layer2
 10
-62.519646537014239
 20
86.015205972889035
 30
0
 40
1.199999861583334
 50
33.749989915596736
 51
127.4999899155961
  0
ARC
  8
layer2
 10
-33.740505097613941
 20
81.459203351569272
 30
0
 40
2.770000389493632
 50
317.00849461994744
 51
18.74998261994741
  0
ARC
  8
layer2
 10
-85.165848475570343
 20
22.821078274129746
 30
0
 40
2.7700003033535223
 50
9.5085107074948905
 51
71.249998707495067
  0
ARC
  8
layer2
 10
-69.949735170901548
 20
53.675485848245067
 30
0
 40
2.7699994276783211
 50
347.00852189232364
 51
48.750009892323675
  0
ARC
  8
layer2
 10
-105.75117580221982
 20
11.135999101815594
 30
0
 40
1.200000422040137
 50
172.4999801378554
 51
266.24998013785478
  0
ARC
  8
layer2
 10
-86.015205972889049
 20
62.519646537014239
 30
0
 40
1.1999998615833329
 50
142.50001008440347
 51
236.25001008440381
  0
ARC
  8
layer2
 10
-62.345248418549502
 20
62.346557355658518
 30
0
 40
2.7699991885859112
 50
339.50851946989269
 51
41.250007469892722
  0
ARC
  8
layer2
 10
-22.819290283503832
 20
85.166327865495333
 30
0
 40
2.7699998493918288
 50
309.50849031779939
 51
11.249978317799334
  0
ARC
  8
layer2
 10
-106.29999974074093
 20
2.7625690313587379
 30
0
 40
1.2000002592590717
 50
86.25000149726884
 51
180.0000014972691
  0
ARC
  8
layer2
 10
-87.415990945858979
 20
11.509466507851647
 30
0
 40
2.7700002123144909
 50
17.008518064241539
 51
78.750006064241589
  0
ARC
  8
layer2
 10
7.2078127288932592e-006
 20
8.8265323228142734e-007
 30
0
 40
85.000006895378505
 50
173.27520318445369
 51
179.22480218445381
  0
ARC
  8
layer2
 10
-76.357362768366613
 20
44.086012421941781
 30
0
 40
2.7699999176169614
 50
354.50850531627253
 51
56.249993316272622
  0
ARC
  8
layer2
 10
-38.126967480509641
 20
99.265583261433491
 30
0
 40
1.2000004300738627
 50
18.750012200198682
 51
112.50001220019874
  0
ARC
  8
layer2
 10
-69.950862306637802
 20
53.67401840604807
 30
0
 40
2.7700005643951311
 50
236.25000412118899
 51
297.99149212118897
  0
ARC
  8
layer2
 10
-82.651714010250515
 20
66.903033251771063
 30
0
 40
1.2000000055875117
 50
48.749998193482305
 51
142.49999819348281
  0
ARC
  8
layer2
 10
-53.67401840604807
 20
69.950862306637802
 30
0
 40
2.7700005643951306
 50
332.00850787881103
 51
33.749995878810992
  0
ARC
  8
layer2
 10
1.5704727971410648e-006
 20
-4.6604907666392137e-006
 30
0
 40
85.000003991974936
 50
135.77520052697483
 51
141.72479952697481
  0
ARC
  8
layer2
 10
-11.50763244472887
 20
87.416232327069366
 30
0
 40
2.7700002271957516
 50
302.00851179486352
 51
3.7499997948637058
  0
ARC
  8
layer2
 10
-16.613869719484086
 20
105.03000123228071
 30
0
 40
1.1999999150364942
 50
97.499993303167997
 51
191.249993303168
  0
ARC
  8
layer2
 10
1.10185695234577e-007
 20
7.9977901279448815e-007
 30
0
 40
85.000000101314484
 50
158.27520252449546
 51
164.22480152449549
  0
ARC
  8
layer2
 10
-77.118882366695487
 20
73.212019241173323
 30
0
 40
1.1999993758251608
 50
134.99999576213588
 51
228.74999576213568
  0
ARC
  8
layer2
 10
-55.542455122176605
 20
90.677215179670114
 30
0
 40
1.2000002297131465
 50
119.99998693167871
 51
213.74998693167859
  0
ARC
  8
layer2
 10
2.0607976338737899e-006
 20
-9.8924731872784832e-006
 30
0
 40
85.000009517854011
 50
120.77519938089065
 51
126.72479838089076
  0
ARC
  8
layer2
 10
-88.170421449805005
 20
0.00092533406744577107
 30
0
 40
2.7699994354737898
 50
24.508515756899694
 51
86.250003756899673
  0
ARC
  8
layer2
 10
-90.677215179670114
 20
55.542455122176605
 30
0
 40
1.2000002297131471
 50
56.250013068321408
 51
150.00001306832132
  0
ARC
  8
layer2
 10
-44.084409864271223
 20
76.358288602434072
 30
0
 40
2.7700002107075656
 50
324.50850352363113
 51
26.249991523631241
  0
ARC
  8
layer2
 10
-103.3929209002783
 20
24.844027426099643
 30
0
 40
1.2000000319619233
 50
165.00001426053782
 51
258.7500142605378
  0
ARC
  8
layer2
 10
-105.03000123228071
 20
16.613869719484086
 30
0
 40
1.1999999150364939
 50
78.750006696831974
 51
172.50000669683203
  0
ARC
  8
layer2
 10
8.9822486160073822e-006
 20
-9.6612499511650185e-006
 30
0
 40
85.00001073996485
 50
165.77519666989642
 51
171.72479566989645
  0
ARC
  8
layer2
 10
-50.757545586865419
 20
93.439785179329945
 30
0
 40
1.1999999976634872
 50
26.249967708828759
 51
119.99996770882827
  0
ARC
  8
layer2
 10
-44.086012421941774
 20
76.357362768366627
 30
0
 40
2.7699999176169676
 50
213.75000668372755
 51
275.4914946837273
  0
ARC
  8
layer2
 10
-87.416232327069366
 20
11.507632444728873
 30
0
 40
2.7700002271957556
 50
266.2500002051363
 51
327.99148820513642
  0
ARC
  8
layer2
 10
-53.675485848245067
 20
69.949735170901548
 30
0
 40
2.7699994276783255
 50
221.24999010767633
 51
282.99147810767636
  0
ARC
  8
layer2
 10
-101.96290935619294
 20
30.180901190803873
 30
0
 40
1.2000006184070373
 50
71.250010132438646
 51
165.00001013243869
  0
ARC
  8
layer2
 10
-30.180901190803873
 20
101.96290935619294
 30
0
 40
1.2000006184070373
 50
104.99998986756133
 51
198.74998986756134
  0
ARC
  8
layer2
 10
4.8217581998244441e-006
 20
-1.6101858903994071e-006
 30
0
 40
85.00000319822982
 50
105.7752046251732
 51
111.72480362517319
  0
ARC
  8
layer2
 10
5.661249316446515e-006
 20
-9.9822482013678382e-006
 30
0
 40
85.000010739964338
 50
98.275204330103193
 51
104.22480333010323
  0
ARC
  8
layer2
 10
-11.509466507851648
 20
87.415990945858979
 30
0
 40
2.7700002123144891
 50
191.24999393575843
 51
252.99148193575849
  0
ARC
  8
layer2
 10
-22.821078274129743
 20
85.165848475570357
 30
0
 40
2.770000303353525
 50
198.75000129250517
 51
260.49148929250509
  0
ARC
  8
layer2
 10
-0.00092533406744665925
 20
88.170421449805005
 30
0
 40
2.7699994354737885
 50
183.74999624310033
 51
245.49148424310033
  0
ARC
  8
layer2
 10
-11.135999101815592
 20
105.75117580221982
 30
0
 40
1.2000004220401359
 50
3.7500198621452134
 51
97.500019862144683
  0
ARC
  8
layer2
 10
-97.15120457470465
 20
43.231529733506704
 30
0
 40
1.2000000438312508
 50
63.749993235978977
 51
157.49999323597891
  0
ARC
  8
layer2
 10
7.8924747839437259e-006
 20
-6.0607985119531804e-006
 30
0
 40
85.000009517855801
 50
143.27520161910942
 51
149.2248006191094
  0
ARC
  8
layer2
 10
1.1470158156612342e-006
 20
-6.0098216039250474e-006
 30
0
 40
85.000006195503175
 50
113.27520087088526
 51
119.22479987088525
  0
ARC
  8
layer2
 10
-81.458494751366686
 20
33.742213921021317
 30
0
 40
2.7700005597548829
 50
2.0085158771599452
 51
63.75000387716004
  0
ARC
  8
layer2
 10
-38.126967480509663
 20
-99.265583261433491
 30
0
 40
1.2000004300738638
 50
247.49998779980126
 51
341.24998779980132
  0
ARC
  8
layer2
 10
-11.509466507851656
 20
-87.415990945858979
 30
0
 40
2.7700002123144927
 50
107.00851806424158
 51
168.7500060642416
  0
ARC
  8
layer2
 10
7.20781393681591e-006
 20
-5.8826531390554493e-006
 30
0
 40
85.000006895379713
 50
180.77519781554628
 51
186.72479681554623
  0
ARC
  8
layer2
 10
4.5704732372087165e-006
 20
6.6049089753050794e-007
 30
0
 40
85.000003991975362
 50
218.27520047302505
 51
224.22479947302503
  0
ARC
  8
layer2
 10
-44.084409864271223
 20
-76.358288602434072
 30
0
 40
2.7700002107075679
 50
333.75000847636875
 51
35.491496476368837
  0
ARC
  8
layer2
 10
-53.674018406048077
 20
-69.950862306637788
 30
0
 40
2.7700005643951284
 50
326.25000412118862
 51
27.991492121188646
  0
ARC
  8
layer2
 10
-44.086012421941788
 20
-76.357362768366627
 30
0
 40
2.7699999176169672
 50
84.508505316272547
 51
146.24999331627237
  0
ARC
  8
layer2
 10
-87.416232327069366
 20
-11.507632444728863
 30
0
 40
2.7700002271957542
 50
32.008511794863573
 51
93.749999794863712
  0
ARC
  8
layer2
 10
-86.015205972889078
 20
-62.519646537014225
 30
0
 40
1.1999998615833296
 50
123.74998991559711
 51
217.4999899155975
  0
ARC
  8
layer2
 10
6.0607991869687794e-006
 20
7.8924758639686843e-006
 30
0
 40
85.00000951785708
 50
233.27520161910948
 51
239.22480061910937
  0
ARC
  8
layer2
 10
-16.613869719484097
 20
-105.03000123228071
 30
0
 40
1.1999999150364944
 50
168.750006696832
 51
262.50000669683197
  0
ARC
  8
layer2
 10
-85.165848475570357
 20
-22.821078274129732
 30
0
 40
2.770000303353525
 50
288.7500012925052
 51
350.49148929250509
  0
ARC
  8
layer2
 10
-33.742213921021325
 20
-81.4584947513667
 30
0
 40
2.7700005597548905
 50
92.008515877159937
 51
153.75000387715986
  0
ARC
  8
layer2
 10
4.660490752428359e-006
 20
1.5704729321441846e-006
 30
0
 40
85.000003991975035
 50
225.77520052697486
 51
231.72479952697489
  0
ARC
  8
layer2
 10
-106.29999974074093
 20
-2.7625690313587263
 30
0
 40
1.2000002592590704
 50
179.99999850273076
 51
273.74999850273116
  0
ARC
  8
layer2
 10
-88.170421449805005
 20
-0.00092533406743378066
 30
0
 40
2.7699994354737911
 50
273.74999624310033
 51
335.49148424310027
  0
ARC
  8
layer2
 10
-69.950862306637788
 20
-53.674018406048063
 30
0
 40
2.7700005643951302
 50
62.008507878811294
 51
123.74999587881132
  0
ARC
  8
layer2
 10
-99.265583261433491
 20
-38.126967480509634
 30
0
 40
1.2000004300738627
 50
108.7500122001987
 51
202.50001220019874
  0
ARC
  8
layer2
 10
-62.519646537014239
 20
-86.015205972889035
 30
0
 40
1.1999998615833312
 50
232.50001008440319
 51
326.25001008440307
  0
ARC
  8
layer2
 10
-22.821078274129754
 20
-85.165848475570343
 30
0
 40
2.7700003033535228
 50
99.508510707494892
 51
161.24999870749505
  0
ARC
  8
layer2
 10
-55.542455122176627
 20
-90.677215179670114
 30
0
 40
1.2000002297131473
 50
146.25001306832141
 51
240.00001306832129
  0
ARC
  8
layer2
 10
6.0098214902382097e-006
 20
1.1470157303961059e-006
 30
0
 40
85.000006195503047
 50
203.27520087088521
 51
209.22479987088522
  0
ARC
  8
layer2
 10
1.6101883346664181e-006
 20
4.8217590560284407e-006
 30
0
 40
85.00000319823242
 50
195.77520462517327
 51
201.72480362517308
  0
ARC
  8
layer2
 10
-66.903033251771063
 20
-82.651714010250473
 30
0
 40
1.2000000055875111
 50
138.74999819348281
 51
232.49999819348284
  0
ARC
  8
layer2
 10
-97.15120457470465
 20
-43.231529733506683
 30
0
 40
1.2000000438312519
 50
202.50000676402109
 51
296.2500067640209
  0
ARC
  8
layer2
 10
-103.3929209002783
 20
-24.844027426099633
 30
0
 40
1.2000000319619242
 50
101.24998573946222
 51
194.99998573946218
  0
ARC
  8
layer2
 10
-50.757545586865433
 20
-93.439785179329959
 30
0
 40
1.1999999976634772
 50
240.00003229117169
 51
333.75003229117169
  0
ARC
  8
layer2
 10
-81.4584947513667
 20
-33.742213921021303
 30
0
 40
2.7700005597548882
 50
296.24999612284017
 51
357.99148412284006
  0
ARC
  8
layer2
 10
-105.03000123228071
 20
-16.613869719484068
 30
0
 40
1.1999999150364939
 50
187.49999330316797
 51
281.24999330316803
  0
ARC
  8
layer2
 10
-69.949735170901548
 20
-53.675485848245067
 30
0
 40
2.7699994276783273
 50
311.24999010767635
 51
12.991478107676354
  0
ARC
  8
layer2
 10
-87.415990945858979
 20
-11.509466507851638
 30
0
 40
2.7700002123144918
 50
281.24999393575843
 51
342.99148193575849
  0
ARC
  8
layer2
 10
-0.00092533406745709534
 20
-88.170421449804991
 30
0
 40
2.769999435473788
 50
114.50851575689981
 51
176.25000375689996
  0
ARC
  8
layer2
 10
9.9822470218668968e-006
 20
5.6612490890728395e-006
 30
0
 40
85.00001073996313
 50
188.27520433010315
 51
194.22480333010324
  0
ARC
  8
layer2
 10
5.147015585293957e-006
 20
4.0098214668660148e-006
 30
0
 40
85.00000619550292
 50
240.77520012911484
 51
246.72479912911484
  0
ARC
  8
layer2
 10
-11.507632444728882
 20
-87.416232327069366
 30
0
 40
2.7700002271957533
 50
356.2500002051363
 51
57.991488205136427
  0
ARC
  8
layer2
 10
-62.345248418549502
 20
-62.346557355658504
 30
0
 40
2.7699991885859041
 50
318.74999253010719
 51
20.491480530107207
  0
ARC
  8
layer2
 10
-7.9977902345262919e-007
 20
1.10185695234577e-007
 30
0
 40
85.000000101314484
 50
248.27520252449546
 51
254.22480152449549
  0
ARC
  8
layer2
 10
-85.166327865495333
 20
-22.819290283503829
 30
0
 40
2.7699998493918341
 50
39.508490317799485
 51
101.24997831779932
  0
ARC
  8
layer2
 10
-8.8265329623027355e-007
 20
7.2078119615071046e-006
 30
0
 40
85.000006895377737
 50
263.27520318445363
 51
269.22480218445384
  0
ARC
  8
layer2
 10
9.6612500186665784e-006
 20
8.9822490139113143e-006
 30
0
 40
85.000010739965248
 50
255.77519666989645
 51
261.72479566989642
  0
ARC
  8
layer2
 10
-24.844027426099657
 20
-103.3929209002783
 30
0
 40
1.2000000319619264
 50
255.00001426053763
 51
348.7500142605378
  0
ARC
  8
layer2
 10
-43.231529733506719
 20
-97.15120457470465
 30
0
 40
1.2000000438312468
 50
153.74999323597885
 51
247.49999323597859
  0
ARC
  8
layer2
 10
-76.358288602434058
 20
-44.08440986427123
 30
0
 40
2.7700002107075723
 50
54.508503523631575
 51
116.24999152363145
  0
ARC
  8
layer2
 10
-73.212019241173337
 20
-77.118882366695487
 30
0
 40
1.1999993758251615
 50
224.99999576213537
 51
318.74999576213571
  0
ARC
  8
layer2
 10
-93.439785179329945
 20
-50.757545586865405
 30
0
 40
1.1999999976634865
 50
116.24996770882876
 51
209.99996770882828
  0
ARC
  8
layer2
 10
-30.180901190803883
 20
-101.96290935619294
 30
0
 40
1.2000006184070375
 50
161.25001013243866
 51
255.00001013243866
  0
ARC
  8
layer2
 10
-77.118882366695516
 20
-73.212019241173323
 30
0
 40
1.1999993758251521
 50
131.25000423786381
 51
225.00000423786412
  0
ARC
  8
layer2
 10
-11.135999101815605
 20
-105.75117580221982
 30
0
 40
1.2000004220401359
 50
262.4999801378554
 51
356.24998013785478
  0
ARC
  8
layer2
 10
-90.677215179670114
 20
-55.542455122176605
 30
0
 40
1.2000002297131465
 50
209.99998693167868
 51
303.74998693167856
  0
ARC
  8
layer2
 10
-76.357362768366613
 20
-44.086012421941781
 30
0
 40
2.7699999176169654
 50
303.75000668372741
 51
5.4914946837274785
  0
ARC
  8
layer2
 10
-82.651714010250544
 20
-66.903033251771035
 30
0
 40
1.2000000055875208
 50
217.5000018065177
 51
311.25000180651728
  0
ARC
  8
layer2
 10
-2.7625690313587508
 20
-106.29999974074093
 30
0
 40
1.2000002592590717
 50
176.25000149726887
 51
270.00000149726912
  0
ARC
  8
layer2
 10
-53.675485848245067
 20
-69.949735170901548
 30
0
 40
2.769999427678322
 50
77.008521892323799
 51
138.75000989232367
  0
ARC
  8
layer2
 10
-22.81929028350384
 20
-85.166327865495333
 30
0
 40
2.7699998493918243
 50
348.75002168220067
 51
50.491509682200693
  0
ARC
  8
layer2
 10
-81.459203351569272
 20
-33.740505097613934
 30
0
 40
2.7700003894936356
 50
47.008494619947477
 51
108.7499826199474
  0
ARC
  8
layer2
 10
-62.34655735565854
 20
-62.345248418549502
 30
0
 40
2.7699991885859117
 50
69.508519469892562
 51
131.25000746989249
  0
ARC
  8
layer2
 10
9.892473400441304e-006
 20
2.0607977475606276e-006
 30
0
 40
85.000009517854252
 50
210.77519938089063
 51
216.72479838089072
  0
ARC
  8
layer2
 10
-101.96290935619294
 20
-30.180901190803862
 30
0
 40
1.2000006184070366
 50
194.99998986756131
 51
288.74998986756134
  0
ARC
  8
layer2
 10
-105.75117580221982
 20
-11.135999101815582
 30
0
 40
1.2000004220401377
 50
93.750019862145223
 51
187.50001986214465
  0
ARC
  8
layer2
 10
-33.740505097613948
 20
-81.459203351569272
 30
0
 40
2.7700003894936276
 50
341.25001738005255
 51
42.991505380052637
  0
ARC
  8
layer2
 10
73.212019241173323
 20
-77.118882366695502
 30
0
 40
1.1999993758251533
 50
221.25000423786429
 51
315.00000423786366
  0
ARC
  8
layer2
 10
99.265583261433491
 20
-38.126967480509663
 30
0
 40
1.2000004300738629
 50
337.49998779980126
 51
71.249987799801318
  0
ARC
  8
layer2
 10
76.358288602434072
 20
-44.08440986427123
 30
0
 40
2.7700002107075683
 50
63.750008476368819
 51
125.49149647636874
  0
ARC
  8
layer2
 10
24.844027426099633
 20
-103.3929209002783
 30
0
 40
1.2000000319619233
 50
191.24998573946223
 51
284.9999857394622
  0
ARC
  8
layer2
 10
-6.6049196334461158e-007
 20
4.5704744451313672e-006
 30
0
 40
85.000003991976968
 50
308.27520047302511
 51
314.22479947302497
  0
ARC
  8
layer2
 10
81.459203351569272
 20
-33.740505097613948
 30
0
 40
2.7700003894936311
 50
71.250017380052569
 51
132.99150538005264
  0
ARC
  8
layer2
 10
43.231529733506683
 20
-97.15120457470465
 30
0
 40
1.2000000438312519
 50
292.50000676402112
 51
26.250006764020878
  0
ARC
  8
layer2
 10
2.7625690313587254
 20
-106.29999974074093
 30
0
 40
1.2000002592590713
 50
269.99999850273082
 51
3.7499985027311569
  0
ARC
  8
layer2
 10
62.346557355658504
 20
-62.345248418549502
 30
0
 40
2.7699991885859037
 50
48.749992530107193
 51
110.49148053010722
  0
ARC
  8
layer2
 10
85.166327865495333
 20
-22.819290283503847
 30
0
 40
2.7699998493918288
 50
78.750021682200682
 51
140.49150968220059
  0
ARC
  8
layer2
 10
33.742213921021303
 20
-81.4584947513667
 30
0
 40
2.7700005597548882
 50
26.249996122840169
 51
87.991484122840063
  0
ARC
  8
layer2
 10
93.439785179329959
 20
-50.757545586865433
 30
0
 40
1.1999999976634783
 50
330.00003229117169
 51
63.750032291171706
  0
ARC
  8
layer2
 10
5.8826531665889803e-006
 20
7.2078135247011232e-006
 30
0
 40
85.0000068953793
 50
270.77519781554622
 51
276.72479681554626
  0
ARC
  8
layer2
 10
66.903033251771035
 20
-82.651714010250544
 30
0
 40
1.2000000055875213
 50
307.50000180651773
 51
41.250001806517254
  0
ARC
  8
layer2
 10
-4.009821807926528e-006
 20
5.1470157629296409e-006
 30
0
 40
85.000006195503317
 50
330.77520012911486
 51
336.72479912911484
  0
ARC
  8
layer2
 10
62.519646537014225
 20
-86.015205972889078
 30
0
 40
1.1999998615833296
 50
213.7499899155971
 51
307.4999899155975
  0
ARC
  8
layer2
 10
33.740505097613941
 20
-81.459203351569272
 30
0
 40
2.7700003894936396
 50
137.00849461994758
 51
198.74998261994733
  0
ARC
  8
layer2
 10
85.165848475570343
 20
-22.821078274129754
 30
0
 40
2.7700003033535223
 50
189.50851070749485
 51
251.24999870749505
  0
ARC
  8
layer2
 10
69.949735170901548
 20
-53.675485848245067
 30
0
 40
2.7699994276783197
 50
167.00852189232381
 51
228.75000989232365
  0
ARC
  8
layer2
 10
105.75117580221982
 20
-11.135999101815603
 30
0
 40
1.2000004220401337
 50
352.49998013785529
 51
86.249980137854791
  0
ARC
  8
layer2
 10
86.015205972889035
 20
-62.519646537014239
 30
0
 40
1.1999998615833312
 50
322.50001008440319
 51
56.25001008440308
  0
ARC
  8
layer2
 10
62.345248418549502
 20
-62.34655735565854
 30
0
 40
2.7699991885859099
 50
159.50851946989258
 51
221.25000746989252
  0
ARC
  8
layer2
 10
22.819290283503818
 20
-85.166327865495333
 30
0
 40
2.7699998493918239
 50
129.50849031779933
 51
191.24997831779936
  0
ARC
  8
layer2
 10
106.29999974074093
 20
-2.7625690313587521
 30
0
 40
1.2000002592590706
 50
266.25000149726884
 51
1.4972691804938613e-006
  0
ARC
  8
layer2
 10
87.415990945858979
 20
-11.509466507851656
 30
0
 40
2.7700002123144927
 50
197.00851806424157
 51
258.75000606424157
  0
ARC
  8
layer2
 10
-7.2078152157928344e-006
 20
-8.8265308306745283e-007
 30
0
 40
85.000006895380992
 50
353.2752031844538
 51
359.22480218445372
  0
ARC
  8
layer2
 10
76.357362768366627
 20
-44.086012421941781
 30
0
 40
2.7699999176169716
 50
174.5085053162727
 51
236.24999331627248
  0
ARC
  8
layer2
 10
38.126967480509634
 20
-99.265583261433491
 30
0
 40
1.2000004300738629
 50
198.75001220019868
 51
292.50001220019874
  0
ARC
  8
layer2
 10
69.950862306637774
 20
-53.674018406048077
 30
0
 40
2.7700005643951306
 50
56.250004121188361
 51
117.99149212118839
  0
ARC
  8
layer2
 10
82.651714010250473
 20
-66.903033251771063
 30
0
 40
1.2000000055875106
 50
228.74999819348278
 51
322.49999819348284
  0
ARC
  8
layer2
 10
53.674018406048063
 20
-69.950862306637788
 30
0
 40
2.7700005643951306
 50
152.00850787881129
 51
213.74999587881129
  0
ARC
  8
layer2
 10
-1.570473237677561e-006
 20
4.6604910224345986e-006
 30
0
 40
85.000003991975447
 50
315.77520052697491
 51
321.72479952697489
  0
ARC
  8
layer2
 10
11.507632444728868
 20
-87.416232327069366
 30
0
 40
2.7700002271957582
 50
122.00851179486368
 51
183.74999979486367
  0
ARC
  8
layer2
 10
16.613869719484068
 20
-105.03000123228071
 30
0
 40
1.1999999150364944
 50
277.49999330316797
 51
11.249993303168024
  0
ARC
  8
layer2
 10
-1.1018454415534507e-007
 20
-7.9977942135656122e-007
 30
0
 40
85.000000101313262
 50
338.2752025244954
 51
344.22480152449555
  0
ARC
  8
layer2
 10
77.118882366695473
 20
-73.212019241173337
 30
0
 40
1.1999993758251621
 50
314.99999576213588
 51
48.749995762135185
  0
ARC
  8
layer2
 10
55.542455122176605
 20
-90.677215179670114
 30
0
 40
1.2000002297131471
 50
299.99998693167868
 51
33.749986931678592
  0
ARC
  8
layer2
 10
-2.0607991046972529e-006
 20
9.8924754325935282e-006
 30
0
 40
85.000009517856697
 50
300.77519938089074
 51
306.72479838089066
  0
ARC
  8
layer2
 10
88.170421449804991
 20
-0.0009253340674568733
 30
0
 40
2.7699994354737885
 50
204.50851575689981
 51
266.25000375689996
  0
ARC
  8
layer2
 10
90.677215179670114
 20
-55.542455122176627
 30
0
 40
1.2000002297131465
 50
236.25001306832141
 51
330.00001306832132
  0
ARC
  8
layer2
 10
44.084409864271215
 20
-76.358288602434058
 30
0
 40
2.7700002107075634
 50
144.50850352363142
 51
206.24999152363156
  0
ARC
  8
layer2
 10
103.3929209002783
 20
-24.844027426099657
 30
0
 40
1.2000000319619273
 50
345.00001426053763
 51
78.75001426053781
  0
ARC
  8
layer2
 10
105.03000123228071
 20
-16.613869719484097
 30
0
 40
1.1999999150364944
 50
258.75000669683197
 51
352.50000669683203
  0
ARC
  8
layer2
 10
-8.9822474080847314e-006
 20
9.6612496989223473e-006
 30
0
 40
85.000010739963614
 50
345.77519666989639
 51
351.72479566989648
  0
ARC
  8
layer2
 10
50.757545586865405
 20
-93.439785179329945
 30
0
 40
1.1999999976634872
 50
206.24996770882876
 51
299.99996770882825
  0
ARC
  8
layer2
 10
44.086012421941781
 20
-76.357362768366613
 30
0
 40
2.7699999176169654
 50
33.750006683727385
 51
95.491494683727481
  0
ARC
  8
layer2
 10
87.416232327069366
 20
-11.507632444728891
 30
0
 40
2.7700002271957613
 50
86.250000205136303
 51
147.99148820513628
  0
ARC
  8
layer2
 10
53.675485848245067
 20
-69.949735170901548
 30
0
 40
2.7699994276783269
 50
41.249990107676332
 51
102.99147810767636
  0
ARC
  8
layer2
 10
101.96290935619294
 20
-30.180901190803883
 30
0
 40
1.2000006184070364
 50
251.25001013243866
 51
345.00001013243866
  0
ARC
  8
layer2
 10
30.180901190803862
 20
-101.96290935619294
 30
0
 40
1.2000006184070371
 50
284.99998986756134
 51
18.749989867561354
  0
ARC
  8
layer2
 10
-4.821758277984145e-006
 20
1.6101860609296637e-006
 30
0
 40
85.000003198230004
 50
285.77520462517322
 51
291.72480362517319
  0
ARC
  8
layer2
 10
-5.6612494905294852e-006
 20
9.9822490255974117e-006
 30
0
 40
85.000010739965163
 50
278.27520433010318
 51
284.22480333010321
  0
ARC
  8
layer2
 10
11.509466507851638
 20
-87.415990945858979
 30
0
 40
2.7700002123144909
 50
11.249993935758408
 51
72.9914819357585
  0
ARC
  8
layer2
 10
22.821078274129732
 20
-85.165848475570357
 30
0
 40
2.7700003033535245
 50
18.750001292505193
 51
80.491489292505094
  0
ARC
  8
layer2
 10
0.00092533406743511293
 20
-88.170421449805005
 30
0
 40
2.7699994354737894
 50
3.7499962431003397
 51
65.491484243100302
  0
ARC
  8
layer2
 10
11.135999101815582
 20
-105.75117580221982
 30
0
 40
1.2000004220401377
 50
183.75001986214517
 51
277.50001986214465
  0
ARC
  8
layer2
 10
97.15120457470465
 20
-43.231529733506719
 30
0
 40
1.2000000438312459
 50
243.74999323597882
 51
337.49999323597859
  0
ARC
  8
layer2
 10
-7.8924741586661185e-006
 20
6.0607980501004022e-006
 30
0
 40
85.000009517855048
 50
323.2752016191094
 51
329.22480061910943
  0
ARC
  8
layer2
 10
-1.1470159151372172e-006
 20
6.009821873931287e-006
 30
0
 40
85.00000619550346
 50
293.27520087088521
 51
299.22479987088519
  0
ARC
  8
layer2
 10
81.4584947513667
 20
-33.742213921021325
 30
0
 40
2.7700005597548865
 50
182.00851587715991
 51
243.75000387715983
  0
ARC
  8
layer1
 10
-7.3478807948841168e-015
 20
0
 30
0
 40
120
 50
90
 51
270
  0
ARC
  8
layer1
 10
-7.3478807948841184e-015
 20
0
 30
0
 40
120
 50
270
 51
90
  0
ARC
  8
layer1
 10
-3.2684965844964609e-013
 20
-2.4868995751603507e-014
 30
0
 40
97.163585675911719
 50
163.01679407088761
 51
166.98320583404706
  0
ARC
  8
layer1
 10
1.8474111129762605e-013
 20
-1.7763568394002505e-013
 30
0
 40
97.163585675912245
 50
155.51679442899035
 51
159.48320597067223
  0
ARC
  8
layer1
 10
3.4106051316484809e-013
 20
-1.9895196601282805e-013
 30
0
 40
97.163585675912401
 50
148.01679415999797
 51
151.983205612164
  0
ARC
  8
layer1
 10
-5.5422333389287814e-013
 20
3.4106051316484809e-013
 30
0
 40
97.163585675911364
 50
140.51679442957897
 51
144.48320576429575
  0
ARC
  8
layer1
 10
-3.1263880373444408e-013
 20
4.1211478674085811e-013
 30
0
 40
97.163585675911506
 50
133.01679459091943
 51
136.98320540908057
  0
ARC
  8
layer1
 10
-2.0605739337042905e-013
 20
-1.7053025658242404e-013
 30
0
 40
97.163585675912017
 50
125.51679423570414
 51
129.48320557042075
  0
ARC
  8
layer1
 10
1.5631940186722204e-013
 20
-2.5579538487363607e-013
 30
0
 40
97.163585675912302
 50
118.0167943878359
 51
121.98320584000193
  0
ARC
  8
layer1
 10
1.2789769243681803e-013
 20
0
 30
0
 40
97.163585675912074
 50
110.51679402932777
 51
114.48320557100968
  0
ARC
  8
layer1
 10
7.1054273576010019e-014
 20
-7.1054273576010019e-014
 30
0
 40
97.163585675912117
 50
103.01679416595302
 51
106.98320592911233
  0
ARC
  8
layer1
 10
1.0480505352461478e-013
 20
-2.1316282072803006e-013
 30
0
 40
97.163585675912245
 50
95.516794226278222
 51
99.483205755222116
  0
ARC
  8
layer1
 10
5.773159728050814e-015
 20
4.2632564145606011e-014
 30
0
 40
97.163585675911975
 50
88.01679443125937
 51
91.983205568740644
  0
ARC
  8
layer1
 10
7.1054273576010019e-014
 20
0
 30
0
 40
97.163585675912017
 50
80.516794244777969
 51
84.483205773721849
  0
ARC
  8
layer1
 10
-2.8066438062523957e-013
 20
-3.1263880373444408e-013
 30
0
 40
97.163585675912373
 50
73.01679407088757
 51
76.983205834046899
  0
ARC
  8
layer1
 10
-6.3948846218409017e-014
 20
0
 30
0
 40
97.163585675912017
 50
65.516794428990337
 51
69.483205970672273
  0
ARC
  8
layer1
 10
-3.0553337637684308e-013
 20
-1.2789769243681803e-013
 30
0
 40
97.163585675912273
 50
58.016794159997943
 51
61.983205612163978
  0
ARC
  8
layer1
 10
2.8421709430404007e-013
 20
0
 30
0
 40
97.163585675911804
 50
43.016794590919524
 51
46.983205409080661
  0
ARC
  8
layer1
 10
-1.4210854715202004e-013
 20
1.2789769243681803e-013
 30
0
 40
97.163585675912003
 50
50.516794429578937
 51
54.483205764295668
  0
ARC
  8
layer1
 10
1.1368683772161603e-013
 20
-9.2370555648813024e-014
 30
0
 40
97.163585675911975
 50
35.516794235704303
 51
39.483205570420985
  0
ARC
  8
layer1
 10
0
 20
-6.3948846218409017e-014
 30
0
 40
97.163585675912046
 50
28.016794387835951
 51
31.983205840001972
  0
ARC
  8
layer1
 10
-1.4210854715202004e-014
 20
-3.5527136788005009e-014
 30
0
 40
97.163585675912046
 50
20.516794029327698
 51
24.483205571009638
  0
ARC
  8
layer1
 10
2.8421709430404007e-014
 20
-9.2370555648813024e-014
 30
0
 40
97.163585675912032
 50
13.016794165953039
 51
16.983205929112369
  0
ARC
  8
layer1
 10
4.2632564145606011e-014
 20
-1.2612133559741778e-013
 30
0
 40
97.163585675912017
 50
5.5167942262782672
 51
9.4832057552221531
  0
ARC
  8
layer1
 10
8.1001871876651421e-013
 20
-2.2204460492503131e-014
 30
0
 40
97.163585675911207
 50
358.01679443125937
 51
1.9832055687406016
  0
ARC
  8
layer1
 10
-4.5474735088646412e-013
 20
2.0605739337042905e-013
 30
0
 40
97.163585675912515
 50
350.51679424477783
 51
354.48320577372175
  0
ARC
  8
layer1
 10
-1.2789769243681803e-013
 20
3.907985046680551e-014
 30
0
 40
97.163585675912145
 50
343.01679407088773
 51
346.983205834047
  0
ARC
  8
layer1
 10
9.0949470177292824e-013
 20
-2.4158453015843406e-013
 30
0
 40
97.163585675911108
 50
335.51679442899018
 51
339.4832059706722
  0
ARC
  8
layer1
 10
-5.9685589803848416e-013
 20
5.1159076974727213e-013
 30
0
 40
97.163585675912785
 50
328.01679415999797
 51
331.98320561216406
  0
ARC
  8
layer1
 10
4.2632564145606011e-014
 20
-4.9737991503207013e-014
 30
0
 40
97.163585675911932
 50
320.51679442957902
 51
324.4832057642958
  0
ARC
  8
layer1
 10
5.5422333389287814e-013
 20
-2.1316282072803006e-013
 30
0
 40
97.163585675911477
 50
313.0167945909194
 51
316.98320540908048
  0
ARC
  8
layer1
 10
-6.1817218011128716e-013
 20
9.9475983006414026e-013
 30
0
 40
97.163585675913197
 50
305.51679423570403
 51
309.48320557042086
  0
ARC
  8
layer1
 10
3.907985046680551e-013
 20
-7.3896444519050419e-013
 30
0
 40
97.163585675911193
 50
298.01679438783577
 51
301.98320584000197
  0
ARC
  8
layer1
 10
2.7000623958883807e-013
 20
-4.1211478674085811e-013
 30
0
 40
97.163585675911534
 50
290.51679402932763
 51
294.48320557100953
  0
ARC
  8
layer1
 10
-4.9737991503207013e-014
 20
-2.8421709430404007e-014
 30
0
 40
97.163585675912017
 50
283.01679416595289
 51
286.98320592911222
  0
ARC
  8
layer1
 10
2.8244073746463982e-013
 20
-1.0516032489249483e-012
 30
0
 40
97.163585675910937
 50
275.51679422627797
 51
279.483205755222
  0
ARC
  8
layer1
 10
-1.0391687510491465e-013
 20
2.9842794901924208e-013
 30
0
 40
97.163585675912316
 50
268.01679443125937
 51
271.98320556874063
  0
ARC
  8
layer1
 10
1.2079226507921703e-013
 20
4.8316906031686813e-013
 30
0
 40
97.163585675912529
 50
260.51679424477783
 51
264.48320577372175
  0
ARC
  8
layer1
 10
-1.6697754290362354e-013
 20
-8.5265128291212022e-013
 30
0
 40
97.163585675911165
 50
253.01679407088767
 51
256.98320583404706
  0
ARC
  8
layer1
 10
4.9737991503207013e-014
 20
-1.1368683772161603e-013
 30
0
 40
97.163585675911946
 50
245.51679442899024
 51
249.48320597067223
  0
ARC
  8
layer1
 10
7.531752999057062e-013
 20
1.1510792319313623e-012
 30
0
 40
97.163585675913382
 50
238.01679415999794
 51
241.98320561216406
  0
ARC
  8
layer1
 10
2.2737367544323206e-013
 20
3.694822225952521e-013
 30
0
 40
97.163585675912458
 50
230.51679442957899
 51
234.4832057642958
  0
ARC
  8
layer1
 10
3.979039320256561e-013
 20
4.4053649617126212e-013
 30
0
 40
97.163585675912614
 50
223.0167945909194
 51
226.9832054090806
  0
ARC
  8
layer1
 10
4.4053649617126212e-013
 20
2.9132252166164108e-013
 30
0
 40
97.163585675912557
 50
215.51679423570417
 51
219.48320557042098
  0
ARC
  8
layer1
 10
-1.9895196601282805e-013
 20
-1.4210854715202004e-014
 30
0
 40
97.163585675911847
 50
208.01679438783583
 51
211.98320584000206
  0
ARC
  8
layer1
 10
2.7000623958883807e-013
 20
-7.1054273576010019e-015
 30
0
 40
97.163585675912259
 50
200.51679402932763
 51
204.48320557100953
  0
ARC
  8
layer1
 10
-5.4001247917767614e-013
 20
-1.4566126083082054e-013
 30
0
 40
97.163585675911463
 50
193.01679416595289
 51
196.98320592911216
  0
ARC
  8
layer1
 10
5.4001247917767614e-013
 20
2.3092638912203256e-014
 30
0
 40
97.163585675912557
 50
185.51679422627811
 51
189.48320575522197
  0
ARC
  8
layer1
 10
-3.979039320256561e-013
 20
5.6843418860808015e-014
 30
0
 40
97.163585675911619
 50
178.01679443125937
 51
181.98320556874063
  0
ARC
  8
layer1
 10
-6.9633188104489818e-013
 20
1.3500311979441904e-013
 30
0
 40
97.163585675911335
 50
170.51679424477794
 51
174.48320577372183
  0
ENDSEC
  0
EOF
